<?xml version="1.0" encoding="UTF-8" standalone="no"?><!DOCTYPE svg PUBLIC "-//W3C//DTD SVG 1.1//EN" "http://www.w3.org/Graphics/SVG/1.1/DTD/svg11.dtd"><svg width="100%" height="100%" viewBox="0 0 2817 729" version="1.1" xmlns="http://www.w3.org/2000/svg" xmlns:xlink="http://www.w3.org/1999/xlink" xml:space="preserve" xmlns:serif="http://www.serif.com/" style="fill-rule:evenodd;clip-rule:evenodd;stroke-linejoin:round;stroke-miterlimit:2;"><g><path d="M2654.88,725.104c-90.262,-61.154 -198.475,-133.479 -198.475,-133.479l-78.071,-70.325l-106.854,-58.271l-94.279,-58.333l-50.283,-40.333l-23.05,-0l-56.138,40.333l-45.704,58.333l-85.633,45.484l-31.904,-18.13l-198.126,-68.15l-174.816,-68.225l-93.234,-47.162l-42.733,-0l-104.096,47.162l-84.741,68.225l-207.409,69.479l-59.829,24.771l-18.629,-7.787l-50.283,-27.242l-23.046,0l-56.142,27.242l-45.704,39.4l-111.858,40.125l-308.788,136.883l110.483,0l-8.749,3.625l1990.47,0c-2.816,-1.204 -5.646,-2.412 -8.483,-3.625l266.104,0Z" style="fill:#eece9f;fill-rule:nonzero;"/><path d="M1289.56,648.446l-45.834,-6.996l-18.633,35.454l-94.45,-176.783l-18.9,-33.35l-27.484,-4.958l-64.92,38.308l-24.317,53.708l-35.687,8.325l-106.271,-7.341l-72.138,-10.867l-22.733,32.558l-61.446,-165.3l-38.592,2.046l-46.229,29.783l-88.387,-66.241l-54.346,-109.363l-52.179,-22.391l-39.038,43.691l-30.6,12.042l-82.042,-133.646l-36.975,-18.95l-21.941,-35.429l-71.563,-41.909l-7.196,-30.145l-19.766,-1.184l-24.504,-28.854l-16.854,-10.654l-20.709,8.433l-30.421,-4.433l-15.408,7.537l0,717.192l1350.36,0l-60.8,-80.283Z" style="fill:#bc6c25;fill-rule:nonzero;"/><path d="M2816.22,728.729l-0,-680.075l-25.846,10.896l-91.742,123.221l-27.825,-13.863l-32.575,-45.07l-51.887,17.854l-62.921,101.762l-90.812,57.609l-40.842,-32.146l-36.454,-4.779l-75.446,155.316l-18.233,-33.125l-69.655,5.267l-82.191,64.321l-52.571,-75.584l-17.554,-53.679l-57.721,-41.746l-26.625,2.8l-21.396,30.863l-107.992,164.016l-14.037,-35.625l-44.263,3.434l-161.745,278.333l1210.33,0Z" style="fill:#bc6c25;fill-rule:nonzero;"/><path d="M658.158,413.25l34.338,42.788l-13.084,-0l36.505,31.545l42.279,88.921l-61.446,-165.296l-38.592,2.042Z" style="fill:#dda15e;fill-rule:nonzero;"/><path d="M611.929,443.033l-88.392,-66.241l-54.341,-109.363l-52.179,-22.391l-10.942,12.241l25.633,8.329l32.542,45.567l48.792,57.829l-33.325,-23.45l54.971,122.167l-7.267,-59.283l84.508,34.595Z" style="fill:#dda15e;fill-rule:nonzero;"/><path d="M423.267,421.35l-39.704,-86.225l-12.5,-11.867l0.333,12.45l9.604,20.671l-13.446,-16l-20.175,-39.608l-82.042,-133.646l-36.975,-18.946l-21.941,-35.433l-71.563,-41.909l-7.196,-30.145l-19.766,-1.188l-24.504,-28.85l-16.854,-10.65c-0,0 17.97,102.054 19.254,103.808l38.42,77.105l-57.674,-70.971l-2.051,-0.271l17.459,35.754l-28.763,-37.229l-6.779,-0.883l86.454,137.721l-37.687,-3.946l10.787,16.929l-17.287,-12.983l28.816,41.02l-61.474,-49.066l226.37,304.912l116.934,45.358l-68.263,-103.516l258.008,177.121l174.942,67.862l31.492,0l-372.229,-307.379Z" style="fill:#dda15e;fill-rule:nonzero;"/><path d="M2367.16,308.733l-11.37,-16.775l-75.917,127.496l75.446,-155.316l36.454,4.779" style="fill:#dda15e;fill-rule:nonzero;"/><path d="M2432.61,301.063l90.812,-57.609l62.921,-101.762l51.887,-17.854l9.129,12.629l-25.208,6.187l-35.625,41.684l-52.325,52.354l34.079,-20.25l-64.841,114.095l13.029,-56.774l-83.858,27.3Z" style="fill:#dda15e;fill-rule:nonzero;"/><path d="M2816.22,329.425l-0,-280.771l-25.846,10.896l-91.742,123.221l-23.254,36.821l-14.429,14.483l11.258,-19.279l1.605,-12.013l-13.105,10.563l-46.62,80.462l-414.259,290.317l232.004,-70.842l263.413,-152.466l-75.542,95.1l115.767,-35.346l80.75,-91.146Z" style="fill:#dda15e;fill-rule:nonzero;"/><path d="M1981.95,284.908l-0,31.484l-21.167,-0l-37.5,72.3l-97.346,93.895l129.388,-194.879l26.625,-2.8Z" style="fill:#dda15e;fill-rule:nonzero;"/><path d="M2109.79,455.917l90.037,-53.154l61.809,-16.434l-69.655,5.267l-82.191,64.321Z" style="fill:#dda15e;fill-rule:nonzero;"/><path d="M1811.9,446.962l-65.7,117.142l-0,-25.146l-37.5,56.471l58.937,-145.033l44.263,-3.434Z" style="fill:#dda15e;fill-rule:nonzero;"/><path d="M1243.73,641.45l23.3,16.942l22.917,25.141l-35.417,-21.041l35.417,38.05l22.917,1.85l37.5,26.337l-60.8,-80.283l-45.834,-6.996Z" style="fill:#dda15e;fill-rule:nonzero;"/><path d="M1055.94,478.521l38.171,4.066l31.25,54.275l-43.75,-29.17l56.25,58.504l45.833,85.908l-16.667,-56.675l39.125,46.021l-94.404,-174.679l-27.488,-4.958l-28.32,16.708Z" style="fill:#dda15e;fill-rule:nonzero;"/><path d="M477.279,655.875c-2.858,-2.104 -8.787,-8.846 -9.079,-2.092c-0.325,7.467 9.237,5.771 13.033,8.667c-1.4,2.15 -4.116,1.804 -5.846,3.625c4.025,6.542 18.171,1.629 22.775,-1.9c2.713,14.513 -15.987,6.05 -19.679,12.304c3.254,3.071 9.225,1.908 13.492,2.134c1.021,5.62 -10.588,5.787 -13.971,5.379c-7.171,-0.867 -11.946,-4.221 -16.437,-9.338c0.52,-0.4 1.087,-0.766 1.533,-1.221c4.442,-4.512 4.542,-10.258 -3.258,-7.962c4.091,-2.288 9.391,-4.929 8.466,-10.304c-3.841,-0.2 -7.8,-0.163 -11.679,-0.067c6.508,-2.854 20.933,-6.246 23.625,-13.817c0.146,-0.412 0.242,-0.983 0.304,-1.6c4.75,1.271 9.946,1.75 11.942,1.634c-2.033,3.312 -7.125,3.037 -10.754,3.104c0.504,9.087 20.925,4.679 25.225,1.529c-4.825,11.938 -18.621,18.054 -29.692,9.925Zm1.796,-23.446l-0.242,-0.012l-0.196,-0.138l0.438,0.15Zm-150.463,-184.812c-1.412,-1.13 -4.316,-5.025 -7.275,-7.534c7.28,-1.795 14.234,-4.871 19.384,-9.396c4.787,-0.12 9.592,-0.27 13.587,1.092c-2.9,6.417 -11.796,0.796 -16.458,2.996c3.775,11.137 20.858,3.412 27.571,0.275c3.975,20.283 -25.813,21.338 -36.809,12.567Zm30.08,39.158c-12.138,3.738 -25.521,13.104 -38.2,13.8c-1.913,0.104 -3.742,0.121 -5.525,0.087c-4.767,-1.954 -9.23,-4.995 -13.33,-8.504c-1.895,1.854 -2.124,4.038 -1.333,6.35c-12.937,-4.071 -21.312,-13.904 -27.1,-30.1c3.688,8.588 16.183,8.829 23.059,4.217c-14.109,-6.775 -26.626,-5.838 -30.296,-24.6c14.766,1.225 30.045,20.275 45.537,10.917c2.704,6.4 9.367,12.22 14.688,14.062c10.895,3.767 23.037,0.213 32.029,-5.392c2.617,11.509 -14.346,15.38 -21.442,19.296c3.342,11.267 21.704,-3.612 25.667,-8.045c-0.096,2.741 -1.534,5.412 -3.754,7.912Zm-4.763,39.413c-2.358,6.937 -6.692,13.62 -14.292,15.599c-4.52,1.18 -13.779,0.638 -18.237,-0.624c-5.346,-1.509 -9.104,-7.317 -14.812,-6.475c-2.68,17.462 20.854,22.954 33.183,20.445c1.75,-0.354 5.092,-1.4 7.412,-1.525c-2.433,1.354 -4.8,2.867 -6.779,3.942c-11.521,6.263 -23.008,11.017 -36.317,7.4c-16.283,-4.425 -24.97,-14.587 -33.291,-26.208c5.358,4.916 31.158,19.316 30.516,4.496c-18.695,1.041 -31.266,-18.134 -31.704,-34.809c17.88,13.467 39.525,24.675 62.584,17.934c4.562,-1.334 9.366,-3.467 13.962,-6.221c3.392,-0.338 6.717,-0.95 9.85,-1.921c-0.571,2.683 -1.192,5.358 -2.075,7.967Zm-60.071,57.775c-3.375,-1.155 -5.883,-2.059 -6.608,-2.434c11.512,-4.033 46.696,2.675 64.479,-5.129c-5.308,11.4 -13.579,16.375 -27.512,15.608c-10.288,-0.562 -21.329,-10.358 -30.4,-9.45c-0.017,0.475 0.021,0.938 0.041,1.405Zm55.771,28.441c-0.487,0.042 -0.946,0.088 -1.446,0.129c-29.245,2.342 -50.329,-1.079 -72.162,-21.891c4.417,3.804 18.158,10.171 30.504,12.371c3.367,2.266 7.013,3.987 10.437,4.987c14.296,4.179 27.717,-2.771 38.805,-11.121c-0.146,5.433 -2.38,11.283 -6.138,15.525Zm-42.579,49.025c-6.179,-0.496 -10.646,-1.062 -15.604,-4.146c7.804,-0.666 14.721,-4.495 13.687,-13.929c-13.125,-3.137 -37.275,-4.437 -34.45,-24.221c10.213,4.259 18.417,12.459 29.159,15.946c7.02,10.65 36.466,4.142 44.987,7.125c-2.012,1.034 -25.525,8.513 -25.579,8.2c2.079,11.917 27.417,1.863 32.537,-2.55c-13.533,12.904 -26.608,15.025 -44.737,13.575Zm3.275,-206.954c-9.354,-1.646 -22.938,-1.692 -27.858,-7.95c-9.967,-12.679 7.083,-6.621 12.941,-5.429c5.28,1.075 11.838,1.229 18.542,0.362c-0.05,3.592 3.025,9.459 5.808,13.221c-2.591,-2.391 -5.741,-4.242 -9.2,-3.783c-0.283,1.171 -0.346,2.375 -0.233,3.579Zm39.967,-36.296c-0.796,2.925 -2.138,4.6 -3.825,5.438c0.929,-1.704 1.65,-3.534 2.121,-5.492c0.575,0.013 1.145,0.021 1.704,0.054Zm-35.85,-34.746c4.65,-0.808 17.2,-7.083 27.929,-15.041c0.141,6.337 14.975,6.171 20.396,-0.329c-2.542,5.279 -4.43,10.737 -9.63,13.716c-5.208,2.979 -23.47,-2.8 -25.829,2.146c-5.175,10.867 18.534,4.854 21.317,3.896c2.417,11.737 -24.117,2.837 -20.675,10.483c5.938,13.171 33.5,-3.396 35.958,-12.696c0.484,1.65 0.225,5.646 0.542,8.838c-2.592,4.979 -5.571,10.05 -10.437,12.721c-1.442,0.791 -3.18,1.358 -4.992,1.816l-0.092,-0.862c-3.054,-0.45 -5.762,0.291 -8.333,1.554c-1.025,-0.096 -2.058,-0.183 -2.983,-0.433c-4.463,-1.196 -10.021,-9.1 -13.826,-7.209c-6.545,3.254 3.45,12.267 6.571,13.942l0.184,0.079c-1.417,0.854 -2.884,1.6 -4.421,2.15c-3.034,-1.162 -5.725,-1.75 -7.6,-0.779c0.15,0.85 0.371,1.571 0.579,2.317c-7.667,1.1 -17.842,1.3 -23.479,-0.167c-12.254,-3.192 -19.25,-13.971 -23.046,-25.163c-1.429,-4.204 -2.429,-8.52 -3.35,-12.845c14.063,4.35 30.496,4.437 45.217,1.866Zm37.137,-22.875c2.784,-0.104 5.858,-1.437 8.217,-3.037c0.362,8.317 -7.846,6.958 -13.138,7.504c1.759,-1.458 3.409,-2.954 4.921,-4.467Zm-185.079,-27.012c6.879,7.137 22.471,10.996 31.05,3.917c-11.737,11.42 -23.133,19.141 -40.387,16.504c-0.796,-0.125 -1.542,-0.279 -2.296,-0.43c2.92,-3.783 5.17,-8.695 6.37,-14.999c-6.154,-4.275 -13.22,5.883 -18.758,10.675c-1.708,-0.909 -3.304,-1.909 -4.825,-2.988c1.771,-0.842 3.488,-1.842 5.092,-3.208c4.829,-4.125 10.2,-17.267 0.237,-13.725c-3.45,1.229 -7.483,7.975 -11.429,10.141c-0.429,0.238 -0.841,0.375 -1.267,0.584c-4.154,-4.013 -8.108,-8.513 -12.816,-13.054c-2.813,7.075 -2.504,12.404 -0.221,16.549c-0.571,0.075 -1.117,0.159 -1.708,0.23c-8.067,0.971 -16.146,0.725 -21.509,-6.146c-2.491,-3.192 -4.016,-7.108 -5.154,-11.292c2.754,1.796 6.067,2.675 9.796,2.092c0.617,-4.9 -0.592,-9.346 -2.138,-13.783c3.138,5.47 8.721,11.95 12.275,10.187c4.913,-2.433 -0.966,-12.925 -2.695,-14.729c6.766,4.829 17.825,10.512 25.67,6.566c5.917,-2.979 10.017,-10.599 9.034,-17.083c-4.579,-0.621 -28.7,11.388 -28.842,1.446c14.317,-0.383 26.125,-7.704 28.863,-22.538c-3.842,0.796 -6.575,4.671 -10.059,6.817c-5.766,3.558 -12.75,5.604 -19.5,6.204c-10.75,0.959 -19.516,-2.437 -25.962,-10.941c-2.604,-3.434 -3.542,-8.809 -5.138,-13.563c0.034,-0.5 0,-1.008 -0.108,-1.504c7.188,9.158 18.608,14.846 30.25,15.067c-4.354,-5.275 -8.942,-10.354 -13.746,-15.221c8.592,9.467 24.967,12.467 36.304,6.562c-2.066,-1.325 -4.441,-2.154 -6.883,-2.441c7.875,-0.975 15.713,-6 20.258,-12.338c4.78,7.471 17.875,14.3 22.638,18.017c-12.192,2.929 -17.525,-6.675 -26.692,-11.121c-12.479,23.538 40.454,28.096 49.821,32.237c-8.4,16.992 -33.783,11.671 -47.246,5.08c-9.721,16.208 53.475,24.558 66.421,5.333c-5.775,16.004 -27.663,27.179 -44.7,26.896Zm-52.442,16.141c2.834,-0.137 5.721,-0.191 8.6,-0.333c2.696,1.934 5.975,3.484 9.559,4.788c-7.225,2.096 -15.934,2.504 -18.159,-4.455Zm35.217,9.146c6.788,1.592 13.137,3.084 17.383,5.275c-6.316,10.534 -23.533,0.413 -31.333,7.755c0.292,0.416 0.633,0.8 0.975,1.187c-7.858,-8.096 -25.696,-7.558 -27.817,-21.317c12.954,11.309 29.496,14.709 40.792,7.1Zm36.458,53.592c-3.079,2.104 -6.233,3.563 -9.429,4.529c4.171,-4.471 6.838,-10.004 6.7,-16.383c-7.087,-3.975 -14.117,8.812 -19.496,12.237c-2.079,1.321 -4.75,2.538 -7.704,3.5c-1.617,-0.55 -3.237,-1.187 -4.85,-1.95c-1.517,-0.712 -3.458,-2.295 -5.633,-4.221c1.658,-0.812 3.117,-1.87 4.229,-3.266c7.05,-8.821 -2.392,-7.821 -8.304,-5.721c-1.525,0.546 -2.946,1.042 -4.317,1.504c-5.787,-4.854 -11.792,-8.625 -15.921,-5.371c-2.625,2.067 -3.429,4.4 -2.987,6.834c-1.504,-0.417 -3.059,-0.929 -4.754,-1.663c-6.909,-2.966 -13.221,-7.271 -18.675,-12.166c-6.117,-5.492 -9.917,-11.138 -12.942,-18.021c1.95,2.858 4.292,5.196 7.012,5.454c6.413,0.608 5.592,-5.654 4.017,-10.746c-2.833,-9.163 -11.375,-19.525 -10.637,-28.45c1.633,10.138 9.479,20.75 17.441,26.888c7.538,5.816 29.354,16.854 37.946,8.904l-0.575,-0.646c7.6,7.708 25.542,9.5 35.613,8.425c-6.005,3.433 -14.604,5.7 -17.542,11.737c17.592,12.084 38.437,2.063 54.887,-13.175c-5.249,12.379 -12.329,23.75 -24.079,31.767Zm-8.387,46.267c0.529,-1.417 0.962,-3 1.254,-4.805c0.462,-2.875 0.183,-4.712 -0.567,-5.858c6.954,-2.1 13.429,-5.729 20.342,-11.596c-5.575,8.709 -12.763,16.521 -21.029,22.259Zm-10.117,76.37c-9.433,1.213 -26.75,7.613 -27.671,-5.208c8.663,1.846 28.342,8.767 32.767,-4.508c-5.046,-2.933 -12.683,-1.138 -18.467,-1.354c-8.921,-0.329 -18.966,-1.967 -27.346,-5.263c-9.462,-3.721 -16.983,-10.667 -20.416,-20.137c6.662,1.658 14.687,9.666 22.308,5.566c-6.383,-2.733 -16.729,-4.366 -20.929,-10.483c-1.258,-1.825 -2.058,-4.142 -2.633,-6.675c1.412,0.196 2.971,0.15 4.712,-0.196c3.55,-0.704 5.404,-2.187 6.163,-4.083c12.612,7.875 37.975,10.779 45.425,10.329c-5.063,8.238 -17.7,7.554 -26.721,7.717c1.25,22.575 51.979,11.629 62.662,3.804c-5.812,14.371 -16.879,25.3 -29.854,30.491Zm21.263,101.576c-4.046,0.233 -8.596,0.72 -12.984,0.995c7.738,-3.295 14.388,-8.275 18.009,-15.704c0.658,6.092 -1.813,10.517 -5.025,14.709Zm-13.442,-86.692l0.154,-0.109l0.008,0.063l-0.162,0.046Zm-52.529,0.208c1.125,0.138 2.242,0.238 3.354,0.329c-0.733,0.279 -1.458,0.567 -2.188,0.867c-0.383,-0.4 -0.795,-0.779 -1.166,-1.196Zm16.075,24.017c-2.334,-1.125 -4.559,-2.338 -6.567,-3.688c-5.108,-3.433 -7.7,-8.133 -10.579,-12.662l0.787,0.6c0.45,0.346 0.867,0.725 1.355,1.025c7.275,5.225 17.883,8.937 23.933,9.796c8.321,1.179 22.313,-1.567 28.038,-9.325c-2.605,15.641 -22.826,12.22 -36.967,14.254Zm10.975,23.067c-5.192,-3.555 -10.029,-7.746 -13.609,-12.263c3.05,0.613 6.326,0.792 9.626,0.808c4.324,2.284 8.833,4.092 13.47,5.15c-1.595,2.988 -5.141,5.009 -9.487,6.305Zm-22.463,2.008c-6.441,-6.083 -11.475,-12.908 -11.508,-22.263c6.854,7.067 11.342,16.905 19.988,22.334c-3.242,0.141 -6.221,0.087 -8.48,-0.071Zm-17.166,-131.817l-0.088,0.188c-0.333,-0.421 -0.666,-0.83 -0.992,-1.217l1.08,1.029Zm45.487,0.338c-7.429,1.121 -15.279,0.337 -23.321,-2.796c-0.812,-1.075 -1.537,-2.196 -2.029,-3.404c6.229,0.733 16.1,4.679 25.35,6.2Zm-11.912,-29.246c4.25,2.183 14.8,0.296 18.6,-0.838c-4.15,3.929 -9.167,7.567 -11,12.484c4.254,0.262 8.17,0.341 11.866,0.2c-1.258,0.554 -2.425,1.045 -3.379,1.35c-9.791,3.112 -20.279,1.871 -29.854,-1.509c-8.671,-3.058 -15.492,-7.483 -21.525,-13.171c1.613,-0.208 3.117,-1 4.446,-2.579c2.904,-3.462 -2.713,-10.975 -8.025,-17.346c9.85,9.125 23.425,12.275 37.216,12.463c-3.187,2.617 -2.591,6.763 1.655,8.946Zm-76.913,-266.613c0.096,-0.858 0.167,-1.65 0.213,-2.341c-0.017,0.475 0.012,1.262 0.091,2.254l-0.304,0.087Zm512.683,513.884c-3.8,2.833 -6.925,3.254 -11.491,3.62c-11.771,0.946 -20.258,-0.433 -29.046,-8.812c3.325,2.863 19.775,9.396 21.125,1.654c-0.033,0.204 -15.3,-4.65 -16.608,-5.321c6.516,-2.283 31.9,3.996 30.108,-9.475c-0.767,-5.766 -5.787,-1.766 -8.708,-0.179c-4.638,2.521 -9.263,4.433 -14.621,2.979c-6.554,-1.779 -10.054,-5.87 -13.4,-10.55c2.158,1.979 12.542,7.775 12.283,1.809c-7.525,0.42 -12.587,-7.3 -12.762,-14.013c7.196,5.425 15.912,9.934 25.191,7.221c6.946,-2.033 15.325,-8.558 15.03,-16.521c-5.888,-0.587 -13.059,5.771 -19.738,6.138c-10.129,0.554 -15.667,-3.521 -19.037,-12.946c1.487,3.454 6.516,3.554 9.283,1.696c-5.679,-2.725 -10.721,-2.35 -12.196,-9.904c6.475,0.537 13.188,9.62 19.996,3.141c-3.396,-1.317 -10.946,-0.687 -13.35,-3.746c-4.017,-5.104 2.85,-2.662 5.208,-2.183c8,1.629 23.279,-1.933 21.542,-13.275c-3.709,-0.546 -6.146,3.225 -9.617,4.204c-2.896,0.821 -8.904,1.171 -11.841,0.404c-4.934,-1.283 -7.746,-5.621 -9.275,-10.129c-0.575,-1.687 -0.98,-3.425 -1.351,-5.166c5.663,1.75 12.275,1.783 18.2,0.75c4.067,-0.709 23.134,-11.775 17.096,-17.671c-5.691,4.866 -12.429,8.504 -19.966,6.312c-5.546,-1.612 -19.271,-7.933 -19.513,-14.946c2.575,2.875 14.496,12.538 16.663,5.225c-4.609,-2.545 -15.621,-5.058 -13.917,-12.529c5.837,3.638 13.717,5.946 20.792,3.496c4.891,-1.692 11.554,-8.558 10.15,-14.35c-2.246,-0.296 -4.288,0.904 -5.971,2.454c2.179,-2.946 4.679,-7.912 3.5,-9.829c-2.396,-3.883 -7.525,3.867 -9.25,5.246c-7.142,5.692 -26.479,5.008 -23.896,-8.159c4.358,2.034 15.45,7.051 17.9,-0.179c-3.029,-1.429 -8.804,2.217 -10.687,-1.946c7.966,-2.716 20.899,3.826 23.237,-9.32c-4.817,-2.488 -17.817,10.791 -20.629,0.491c4.246,-0.27 8.992,0.679 12.937,-1.433c2.029,-1.088 8.517,-6.938 4.271,-9.05c-2.471,-1.229 -6.079,3.904 -8.975,4.683c-3.296,0.884 -7.775,0.225 -10.65,-1.35c-3.158,-1.737 -5.092,-5.025 -6.779,-8.262c0.208,-2.071 0.042,-4.663 0.354,-5.733c1.6,6.037 19.496,16.791 23.346,8.241c2.238,-4.962 -14.992,0.813 -13.421,-6.808c1.804,0.625 17.2,4.529 13.838,-2.529c-1.529,-3.209 -13.388,0.541 -16.767,-1.392c-3.375,-1.933 -4.604,-5.479 -6.254,-8.904c3.625,4.35 13.775,4.346 13.254,-0.163c-0.479,-4.154 -11.667,1.084 -11.325,-6.683c3.2,2.171 8.454,3.629 9.692,-1.504c-3.738,-1.463 -9.084,-0.104 -12.375,-2.925c-1.738,-1.496 -2.23,-3.213 -2.392,-5.071l0.254,-0.071c0.167,-2.904 -0.175,-5.854 1,-8.458c0.242,1.579 1.35,6.787 3.663,4.542c1.087,-1.059 -1.1,-6.009 -0.971,-7.65c1.204,3.637 4.492,7.445 8.775,5.437c-0.496,-3.646 -6.042,-4.487 -6.079,-8c2.241,2.204 4.85,4.562 8.141,2.817c-1.837,-5.6 -13.154,-6.367 -16.787,-12.046c-2.442,-3.817 -3.313,-11.333 -3.363,-16.338c-1.054,9.371 -1.737,16.234 -8.821,23.196c-1.537,1.513 -6.52,3.834 -6.741,5.817c-0.475,4.275 6.158,2.775 8.258,1.212c-1.346,1.588 -3.541,3.375 -4.025,5.425c2.142,0.075 3.713,-1.445 5.508,-2.5c-2.266,8.042 -6.037,19.063 -14.266,10.4c-2.825,5.134 4.95,7.43 8.625,7.292c-0.842,2.863 -5.142,2.829 -7.625,2.079c-1.534,6.709 5.987,2.984 8.567,1.563c-3.013,5.566 -7.363,9.862 -14.342,5.104c-2.208,-1.509 -6.329,-7.933 -8.834,-3.15c-2.299,4.387 5.05,6.929 7.238,8.2c-2.592,0.242 -5.088,0.075 -6.758,2.175c1.275,1.787 3.637,2.387 5.579,3.146c-4.254,-0.059 -10.5,-0.338 -4.738,4.116c4.813,3.721 12.367,2.163 17.284,0.054c-0.842,3.821 -8.4,6.138 -11.688,7.717c3.146,1.246 7.521,0.859 11.338,-0.417c-1.288,1.951 -2.759,3.725 -4.763,5.084c-6.933,4.679 -13.962,1.321 -20.2,-2.642c-5.033,5.084 2.938,8.079 6.763,8.854c6.821,1.384 10.491,0.53 15.433,-4.104c-1.55,4.234 -4.933,7.934 -9.204,9.413c6.35,2.062 10.871,-1.246 13.45,-7.196c-0.35,5.341 -3.084,8.654 -7.609,11.237c6.38,0.134 10.967,-1.733 15.275,-6.212c-1.579,6.2 -2.72,12.362 -9.75,14.487c-6.754,2.038 -11.441,-1.596 -15.45,-6.745c-1.137,-1.463 -5.629,-8.813 -5.816,-2.317c-0.117,3.817 7.446,7.608 9.829,9.462c-4.908,1.184 -7.054,-2.687 -10.746,-4.475c-5.025,9.475 16.283,11.313 20.054,12.975c-3.379,6.842 -13.596,4.7 -19.016,2.046c-3.917,6.525 21.525,9.888 26.737,2.15c-2.325,6.442 -11.137,10.942 -17.996,10.825c2.771,2.875 9.046,4.425 12.5,1.575c-4.725,4.6 -9.312,7.709 -16.258,6.646c-8.017,-1.225 -10.917,-5.992 -15.979,-10.871c-4.879,12.284 13.396,11.65 19.804,14.954c-2.546,4.238 -9.475,0.167 -12.613,3.121c2.576,3.721 10.596,4.584 14.951,4.121c-2.417,1.379 -5.88,2.292 -7.063,4.725c7.079,4.867 15.475,0.829 22.096,-5.304c-2.117,4.983 -4.963,9.558 -9.696,12.787c-4.458,3.046 -9.262,3.013 -14,0.779c-2.725,-1.287 -8.821,-9.424 -12.054,-6.874c-5.463,4.304 8.521,11.5 11.537,12.054c-4.371,0.066 -5.05,3.22 -2.475,4.546c1.709,0.879 5.954,0.12 7.488,-0.338c-1.671,1.583 -3.692,3.046 -4.429,5.029c7.954,0.488 13.083,-0.487 19.025,-5.529c-6.4,9.996 -18.021,17.233 -30.292,9.717c-1.737,-1.067 -7.312,-10.963 -8.521,-5.15c-0.679,3.266 4.417,6.712 7.988,8.391c-0.663,-0.066 -1.142,0.13 -1.546,0.446c-1.192,-0.279 -2.329,-0.633 -3.204,-0.975c-1.134,2.033 -0.609,3.713 0.858,5.096l-0.725,1.062c-7.333,8.8 -14.921,14.542 -26.7,15.967c-5.208,0.629 -23.092,0.375 -21.521,-8.283c6.571,-0.35 15.771,1.437 20.779,-3.292c-5.683,-9.629 -34.483,3.4 -30.308,-18.95c7.092,5.433 28.879,13.004 35.079,2.929c-2.658,-2.804 -6.846,-2.275 -9.004,-5.587c5.846,-4.458 20.575,-1.846 20.075,-13.346c-0.45,-10.404 -9.579,-0.021 -13.983,3.217c-17.059,12.529 -38.3,3.1 -45.734,-15.279c6.625,4.85 38.075,11.637 38.85,-2.359c-5.591,-0.104 -13.425,0.321 -16.562,-4.783c6.887,0.416 38.5,-3.784 31.708,-15.959c-2.879,1.126 -7.533,2.376 -11.029,2.276c4.337,-1.126 17.337,-8.017 16.013,-14.384c-1.863,-8.954 -10.446,6.288 -13.126,7.929c-18.9,11.575 -36.8,0.434 -46.654,-14.966c9.15,7.766 17.046,9.271 29.3,8.516c-1.137,-3.05 -4.245,-5.304 -6.816,-7.741c2.354,0.7 8.895,1.871 11.529,0.516c3.966,-2.041 2.921,-6.9 -3.813,-7c4.646,-0.85 26.179,-11.941 17.771,-18.566c-4.983,-3.925 -14.371,8.608 -18.567,10.587c-7.3,3.442 -14.7,3.492 -21.566,-1.2c-7.284,-4.971 -11.675,-12.021 -14.929,-19.696c10.2,9.45 23.125,15.663 34.029,8.167c-1.821,-3.742 -7.15,-5.146 -10.871,-7.275c6.704,0.717 19.054,-0.613 23.025,-6.346c-4.838,-4.55 -15.508,1.721 -19.425,-4.808c9.867,-5.088 38.013,-4.108 30.496,-23.029c-7.792,7.512 -12.263,14.854 -24.609,16.741c-10.695,1.638 -17.766,-3.15 -25.041,-10.233c5.321,4.392 14.987,2 19.25,-2.425c-10.563,0.175 -24.133,-6.754 -27.717,-16.679c8.029,11.921 47.208,6.742 41.183,-3.304c-8.345,4.083 -24.083,7.383 -29.291,-3.155c5.808,-2.562 38.625,-5.391 30.887,-19.987c-5.683,2.758 -8.991,8.717 -16.55,6.896c3.671,-2.859 15.317,-8.7 15.146,-14.575c-0.3,-10.004 -7.212,1.321 -8.966,3.566c-6.176,7.934 -13.396,13.53 -23.792,10.388c-10.829,-3.267 -12.588,-12.763 -15.025,-22.313c6.646,6.9 13.704,9.776 23.533,9.571c-6.975,-3.983 -11.183,-9.083 -11.721,-17.308c3.975,9.163 10.934,14.258 20.717,11.083c-6.583,-2.279 -11.792,-7.975 -14.171,-14.491c7.609,7.133 13.258,8.441 23.763,6.316c5.891,-1.191 18.17,-5.808 10.416,-13.641c-9.604,6.108 -20.433,11.279 -31.112,4.066c-3.088,-2.083 -5.35,-4.825 -7.334,-7.82c5.88,1.962 12.617,2.558 17.463,0.637c-5.067,-2.429 -16.708,-6 -18,-11.883c7.567,3.241 19.208,5.65 26.617,-0.084c8.875,-6.858 -0.746,-6.429 -7.296,-6.341c2.991,-1.171 6.633,-2.096 8.592,-4.846c-2.571,-3.238 -6.417,-2.979 -10.409,-3.354c3.371,-1.95 14.688,-5.867 11.15,-12.621c-3.862,-7.371 -10.204,2.525 -13.604,4.842c-10.75,7.333 -17.45,0.72 -22.092,-7.859c3.971,2.188 15.559,7.929 13.196,-2.408c-3.829,1.158 -10.45,1.204 -11.746,-3.2c5.659,0.212 17.634,-3.321 13.28,-11.225c-12.676,13.337 -18.48,-3.642 -21.967,-16.025c2.758,1.629 5.187,3.962 8.483,3.854c-0.746,-3.158 -4.129,-5.912 -6.2,-8.354c3.234,2.404 13.454,4.712 12.721,-1.875c-0.337,-3.046 -8.021,-6.629 -10.387,-8.954c-10.905,-10.725 -11.963,-21.292 -13.584,-35.729c-0.075,7.708 -1.421,19.287 -5.179,25.162c-5.596,8.75 -23.025,9.929 -25.854,18.558c5.066,2.688 9.087,-0.945 12.537,-4.341c-0.058,5.408 -8.6,6.704 -9.366,12.325c6.6,3.091 11.662,-2.775 13.516,-8.375c0.2,2.529 -3.166,10.15 -1.491,11.779c3.558,3.458 5.266,-4.563 5.637,-6.992c1.813,4.009 1.283,8.554 1.546,13.025l0.387,0.109c-0.25,2.862 -1.008,5.508 -3.683,7.808c-1.85,1.587 -4.129,2.308 -6.546,2.704c3.054,-5.05 3.563,-9.925 -0.475,-13.867c-14.146,12.096 -30.879,21.13 -49.608,15.684c-13.771,-4.004 -47.863,-19.704 -48.462,-37.129c6.391,7.15 36.004,31.141 41.395,12.979c-11.45,-6.317 -38.808,-12.563 -34.579,-31.125c14.496,9.037 34.079,14.771 51.654,8.695c12.15,-4.204 28.7,-21.262 25.217,-35.654c-5.588,-0.741 -10.663,2.246 -14.842,6.105c5.413,-7.325 11.63,-19.663 8.696,-24.417c-5.95,-9.654 -18.691,9.6 -22.975,13.021c-17.737,14.145 -65.779,12.45 -59.366,-20.267c10.829,5.062 38.379,17.517 44.466,-0.442c-7.517,-3.55 -21.867,5.513 -26.542,-4.833c19.784,-6.746 51.909,9.5 57.717,-23.154c-11.962,-6.179 -44.258,26.808 -51.241,1.221c10.554,-0.675 22.337,1.691 32.145,-3.559c5.038,-2.695 21.154,-17.237 10.604,-22.483c-6.137,-3.054 -15.099,9.696 -22.295,11.629c-8.188,2.196 -19.317,0.571 -26.454,-3.35c-7.851,-4.308 -12.655,-12.483 -16.838,-20.521c0.517,-5.141 0.1,-11.583 0.879,-14.246c3.967,15.001 48.421,41.717 57.988,20.471c5.558,-12.329 -37.242,2.025 -33.338,-16.908c4.488,1.55 42.725,11.246 34.375,-6.279c-3.8,-7.975 -33.254,1.346 -41.654,-3.463c-8.388,-4.804 -11.429,-13.608 -15.533,-22.125c9.008,10.809 34.22,10.8 32.925,-0.4c-1.196,-10.312 -28.975,2.692 -28.13,-16.6c7.942,5.392 20.996,9.017 24.075,-3.733c-9.291,-3.633 -22.566,-0.254 -30.741,-7.271c-4.321,-3.708 -5.538,-7.983 -5.942,-12.596l0.629,-0.179c0.417,-7.204 -0.433,-14.537 2.484,-21.004c0.604,3.921 3.358,16.858 9.095,11.279c2.705,-2.629 -2.725,-14.921 -2.404,-19c2.988,9.034 11.155,18.496 21.8,13.509c-1.237,-9.063 -15.016,-11.155 -15.104,-19.884c5.559,5.484 12.042,11.342 20.213,7.009c-4.559,-13.921 -32.671,-15.817 -41.696,-29.93c-6.063,-9.479 -8.229,-28.146 -8.346,-40.579c-2.621,23.283 -4.325,40.321 -21.917,57.617c-3.816,3.754 -16.2,9.525 -16.75,14.446c-1.179,10.621 15.304,6.9 20.517,3.02c-3.342,3.938 -8.796,8.38 -10,13.476c5.321,0.174 9.233,-3.592 13.683,-6.213c-5.625,19.971 -14.991,47.354 -35.429,25.842c-7.025,12.746 12.292,18.446 21.413,18.108c-2.084,7.104 -12.767,7.025 -18.942,5.154c-3.804,16.675 14.883,7.417 21.283,3.888c-7.483,13.837 -18.291,24.5 -35.625,12.675c-5.483,-3.742 -15.716,-19.705 -21.945,-7.817c-5.705,10.9 12.55,17.212 17.983,20.363c-6.442,0.604 -12.638,0.191 -16.792,5.408c3.163,4.437 9.038,5.929 13.863,7.816c-10.567,-0.141 -26.084,-0.837 -11.771,10.23c11.958,9.241 30.725,5.366 42.933,0.133c-2.083,9.483 -20.862,15.25 -29.029,19.162c7.813,3.101 18.679,2.138 28.167,-1.029c-3.205,4.838 -6.855,9.259 -11.83,12.617c-17.229,11.633 -34.687,3.292 -50.183,-6.558c-12.504,12.629 7.3,20.075 16.8,22c16.942,3.433 26.058,1.316 38.329,-10.192c-3.846,10.513 -12.241,19.7 -22.862,23.375c15.783,5.121 27.008,-3.096 33.417,-17.871c-0.867,13.267 -7.659,21.492 -18.905,27.917c15.85,0.325 27.242,-4.313 37.954,-15.438c-3.929,15.4 -6.766,30.713 -24.233,35.988c-16.766,5.058 -28.412,-3.963 -38.371,-16.754c-2.825,-3.625 -13.979,-21.888 -14.458,-5.759c-0.054,1.838 0.621,3.667 1.758,5.463c-12.466,2.608 -25.579,2.066 -37.791,-1.563c-3.084,-0.916 -6.167,-2.058 -8.692,-4.045c-2.325,-1.834 -4.058,-4.292 -5.763,-6.713c-3.716,-5.287 -7.433,-10.575 -11.15,-15.863c-0.079,-1.575 -0.237,-3.141 -0.475,-4.7c1.021,4.438 4.38,8.309 8.68,9.838c-1.155,-5.425 -2.446,-10.821 -3.867,-16.183c2.9,3.754 5.858,7.558 9.7,10.337c3.846,2.779 8.771,4.434 13.383,3.329c-1.737,-4.141 -4.154,-7.987 -7.087,-11.387c3.821,3.729 7.946,6.904 13.966,5.446c-2.833,-7.863 -19.537,-14.75 -26.17,-19.725c-5.43,-4.075 -10.588,-9.142 -13.084,-15.588l-0.196,-0.554c1.305,-1.942 0.442,-8.529 -0.554,-14.546c3.067,7.167 9.984,12.279 18.542,10.825c-6.046,-5.496 -12.462,-9.071 -11.308,-18.65c4.312,5.813 9.846,13.334 18.433,11.546c13.404,-2.792 -1.05,-4.588 -4.875,-5.65c-10.579,-2.937 -17.004,-17.05 -21.113,-26.367c-5.045,-11.437 -8.483,-30.375 -6.362,-40.691c-3.033,14.291 -5.754,28.55 -12.35,41.729c-3.558,7.104 -6.321,9.658 -13.646,12.2c-4.271,1.479 -16.187,4.583 -12.729,11.517c3.108,6.233 15.621,2.208 18.958,-1.276c-0.275,2.646 -9.145,14.23 -0.933,12.063c6.079,-1.596 4.596,-12.679 11.871,-14.404c1.129,8.625 -7.408,16.579 -9.242,24.525c6.683,1.592 10.417,-4.675 12.417,-11.446c0.096,0.388 0.192,0.771 0.283,1.142c0.338,1.345 0.621,2.537 0.613,3.354c-0.071,5.871 -3.863,13.175 -7.254,17.779c-5.359,7.271 -11.225,8.104 -19.063,9.421c0.912,3.8 4.046,2.771 6.258,5.383c-3.066,1.959 -6.579,4.15 -9.65,6.104c-2.821,1.796 -6.046,4.909 -4.521,7.884c3.58,-0.742 6.955,-2.467 9.646,-4.942c1.734,-0.358 1.167,2.875 0.459,4.496c-0.705,1.621 -1.7,3.733 -0.375,4.9c3.362,-2.113 6.275,-4.929 8.508,-8.209c-0.629,1.696 0.358,4.001 2.138,4.738c0.774,0.317 1.599,0.379 2.416,0.263c-1.533,3.154 -3.887,5.916 -6.812,7.858c-2.98,1.979 -6.438,3.108 -9.892,4.05c-4.271,1.162 -8.696,2.083 -13.113,1.675c-4.408,-0.413 -8.85,-2.313 -11.487,-5.871c-1.071,-1.442 -1.821,-3.117 -3.012,-4.462c-1.192,-1.342 -3.038,-2.342 -4.759,-1.826c-2.404,0.721 -3.112,4.055 -1.983,6.296c1.125,2.246 3.416,3.617 5.596,4.863c2.179,1.246 4.475,2.6 5.633,4.829c-2.071,-1.6 -6.654,0.396 -6.567,3.017c0.071,2.091 1.963,3.746 4.034,4.079c-1.45,0.033 -2.9,0.166 -4.254,0.666c-1.838,0.684 -3.5,2.205 -3.771,4.146c-0.271,1.954 0.929,3.884 2.537,5.017c1.617,1.133 3.588,1.621 5.517,2.025c7.287,1.533 14.75,2.246 22.2,2.121c-3.275,0.737 -7.017,3.992 -9.104,6.621c1.887,2.12 5.395,2.55 7.737,0.95c-1.708,1.904 -3.4,4.979 -1.508,6.696c1.196,1.087 3.067,0.75 4.608,0.266c4.438,-1.391 8.65,-3.479 12.475,-6.125c-5.333,11.913 -16.579,22.858 -28.379,24.984c-8.942,1.608 -13.954,-1.742 -19.908,-5.555l-0,3.692c0.621,0.179 1.25,0.329 1.891,0.4c-0.696,-0.021 -1.312,0.042 -1.891,0.138l-0,6.408c3.483,1.612 9.554,0.729 12.787,0.671c-5.375,2.891 -3.721,7.304 0.934,9.162c8.225,3.283 13.245,-6.183 18.683,-9.8c-1.967,2.225 -8.733,15.163 -3.817,16.683c3.525,1.084 9.563,-9.595 11.958,-11.624c-0.595,2.166 -1.708,9.029 0.413,11.016c-3.975,8.067 -8.992,15.333 -18.163,17.704c-9.191,2.38 -16.337,-2.121 -22.795,-7.837l-0,10.617c7.37,4.312 14.708,7.679 16.745,9.158c-3.737,5.079 -10.424,4.8 -16.745,2.933l-0,4.467c5.608,1.912 12.091,2.017 18.712,2.175c2.021,9.162 -9.95,8.808 -18.712,8.254l-0,8.579c2.562,0.838 5.4,1.175 7.837,1.221c8.713,0.175 14.342,-4.804 21.063,-9.912c-1.221,3.516 -6.242,15.516 0.45,16.499c5.591,0.821 17.354,-14.841 17.804,-20.204c0.071,6.946 1.462,9.313 3.508,9.167c-5.779,11.329 -14.479,20.925 -27.646,17.583c-4.875,-1.237 -13.179,-15.575 -15.129,-5.137c-1.454,7.771 10.446,8.992 11.567,15.858c-9.646,3.383 -14.471,-1.121 -19.454,-6.458l-0,21.55c9.141,1.054 18.666,-0.446 26.746,-4.533c-2.342,3.462 -5.796,6.512 -9.55,8.674c-2.346,1.355 -12.692,3.117 -12.984,6.321c-0.554,6.038 14.525,2.988 17.479,2.192c12.663,-3.421 24.584,-11.975 32.067,-22.979c-5.1,17.941 -16.842,35.8 -31.271,46.179c-7.737,5.571 -15.112,6.529 -22.487,4.383l-0,8.579c1.987,0.467 3.762,0.971 5.133,1.596c-1.458,1.296 -3.237,1.813 -5.133,2.021l-0,9.721c10.479,0.904 23.629,-0.304 29.804,-7.875c-4.117,9.675 -15.179,11.237 -21.079,18.488c8.504,3.9 15.979,2.674 22.495,-1.271c-2.674,4.071 -5.97,7.875 -10.525,11.266c-6.516,4.854 -13.454,9.363 -20.695,13.1l-0,19.154c6.22,-2.808 12.337,-5.991 18.708,-8.362c0.525,8.779 -10.5,14.042 -18.708,18.596l-0,7.225c2.858,0.812 6.083,1.041 8.566,0.779c-2.829,2.158 -5.675,4.263 -8.566,6.317l-0,13.987c2.708,-1.296 5.341,-2.725 7.87,-4.254c-1.083,5.313 -3.787,10.638 -7.87,14.292l-0,13.525c5.216,-1.029 10.141,-3.021 14.329,-6.746c0.35,3.658 -1.234,8.346 -3.908,11.212c-1.992,2.134 -7.117,3.234 -10.421,4.825l-0,7.35c1.679,1.23 3.537,1.638 5.52,1.296c-1.704,1.479 -3.55,2.85 -5.52,4.125l-0,44.925c8.1,-4.733 14.766,-12.008 21.45,-19.671c2.654,12.325 -32.413,32.513 -11.359,36.35c16.988,3.096 31.871,-32.233 37.646,-43.229c-0.017,6.434 3.933,22.933 11.638,24.638c0.754,0.166 1.437,0.025 2.058,-0.363l-0,64.225l18.421,0l-0,-86.891c4.883,7.858 11.621,14.924 16.654,19.295c12.063,10.484 49.917,23.442 60.875,5.7c-9.238,-3.479 -17.562,-2.945 -26.263,-8.779c-7.449,-5 -13.304,-9.866 -15.454,-17.133c3.609,0.791 7.329,1.337 10.955,1.708c7.295,6.638 14.87,12.671 25.729,14.004c8.816,1.084 18.05,0.442 26.516,-2.25c4.788,-1.516 20.804,-6.312 22.259,-12.362c0.216,-0.892 0.221,-1.642 0.05,-2.284c7.425,-5.275 13.745,-14.012 16.387,-20.437c1.442,14.808 -18.304,34.558 5.254,41.854c0.029,-10.721 1.2,-22.916 5.05,-32.917c-0.471,4.909 1.059,9.738 4.513,12.967l-0,87.525l14.275,0l-0,-102.358c10.254,10.512 16.1,24.942 33.075,29.783c0.846,0.238 1.741,0.438 2.654,0.617c4.246,9.033 13.567,16.591 22.867,18.987c8.375,2.155 21.887,2.167 30.237,0.121c7.425,-1.821 12.763,-7.521 19.571,-10.358c1.75,12.267 -13.221,13.071 -21.363,15.016c-0.966,8.826 9.284,9.775 15.73,7.934c10.525,-3 14.146,-11.946 20.508,-18.463l-0,58.721l8.85,0l-0,-49.525c2.142,-2 3.088,-4.996 2.796,-8.037c2.387,6.196 3.116,13.758 3.133,20.408c14.604,-4.521 2.363,-16.771 3.258,-25.95c2.9,7.054 12.942,18.604 21.296,14.771c-3.158,-4.059 -6.983,-7.417 -6.362,-13.142c5.371,11.025 21.429,13.429 32.012,13.321c5.746,-0.054 14.359,-0.508 21.104,-2.983c2.755,4.033 10.78,6.029 14.617,7.712c-2.516,-0.062 -5.087,-0.083 -7.583,0.042c-0.6,3.491 2.842,5.204 5.5,6.691c-5.067,-1.487 -5,2.238 -2.117,5.171c4.013,4.08 13.013,4.584 18.271,4.638c6.871,0.071 17.296,-1.492 20.783,-8.65c0.404,3.717 -2.079,5.9 -4.129,8.533c5.425,2.488 11.946,-5.012 13.825,-9.592c0.584,5.963 -7.366,13.913 2.117,16.85c0.012,-4.316 0.483,-9.229 2.033,-13.25c-0.187,1.971 0.425,3.917 1.817,5.221l-0,27.771l5.746,0l-0,-33.746c4.129,4.234 6.483,10.042 13.316,11.988c4.184,1.196 10.838,0.579 10.209,-5.15c-5.284,-1.263 -15.005,-1.788 -13.871,-9.75c4.421,1.842 7.887,5.546 12.708,6.725c5.425,1.325 14.192,1.316 19.634,-0.079c7.587,-1.954 15.216,-9.196 16.266,-16.992c-2.625,-0.063 -3.854,2.529 -5.917,4.067Z" style="fill:#283618;fill-rule:nonzero;"/><path d="M2749.32,171.821c0.075,-0.992 0.104,-1.779 0.091,-2.254c0.046,0.691 0.113,1.483 0.213,2.341l-0.304,-0.087Zm-13.279,95.158c-1.596,4.754 -2.534,10.129 -5.134,13.563c-6.45,8.504 -15.217,11.9 -25.967,10.941c-6.745,-0.6 -13.733,-2.646 -19.495,-6.204c-3.484,-2.146 -6.221,-6.021 -10.055,-6.817c2.734,14.834 14.542,22.155 28.855,22.538c-0.142,9.942 -24.259,-2.067 -28.842,-1.446c-0.983,6.484 3.117,14.104 9.037,17.083c7.846,3.946 18.901,-1.737 25.671,-6.566c-1.729,1.804 -7.612,12.296 -2.7,14.729c3.559,1.762 9.138,-4.717 12.275,-10.187c-1.545,4.437 -2.754,8.883 -2.133,13.783c3.725,0.583 7.037,-0.296 9.792,-2.092c-1.134,4.184 -2.659,8.1 -5.15,11.292c-5.363,6.871 -13.446,7.117 -21.513,6.146c-0.592,-0.071 -1.137,-0.155 -1.704,-0.23c2.279,-4.145 2.592,-9.474 -0.221,-16.549c-4.708,4.541 -8.666,9.041 -12.821,13.054c-0.425,-0.209 -0.833,-0.346 -1.266,-0.584c-3.942,-2.166 -7.975,-8.912 -11.425,-10.141c-9.963,-3.542 -4.596,9.6 0.237,13.725c1.6,1.366 3.321,2.366 5.088,3.208c-1.517,1.079 -3.117,2.079 -4.821,2.988c-5.538,-4.792 -12.604,-14.95 -18.754,-10.675c1.196,6.304 3.446,11.216 6.362,14.999c-0.754,0.151 -1.496,0.305 -2.287,0.43c-17.259,2.637 -28.655,-5.084 -40.392,-16.504c8.579,7.079 24.171,3.22 31.05,-3.917c-17.037,0.283 -38.925,-10.892 -44.7,-26.896c12.946,19.225 76.137,10.875 66.417,-5.333c-13.459,6.591 -38.842,11.912 -47.246,-5.08c9.371,-4.141 62.304,-8.699 49.821,-32.237c-9.167,4.446 -14.496,14.05 -26.688,11.121c4.767,-3.717 17.854,-10.546 22.638,-18.017c4.545,6.338 12.379,11.363 20.254,12.338c-2.438,0.287 -4.813,1.116 -6.879,2.441c11.337,5.905 27.708,2.905 36.304,-6.562c-4.808,4.867 -9.392,9.946 -13.746,15.221c11.642,-0.221 23.063,-5.909 30.25,-15.067c-0.112,0.496 -0.146,1.004 -0.112,1.504Zm-52.034,87.163c3.588,-1.304 6.863,-2.854 9.563,-4.788c2.875,0.142 5.766,0.196 8.596,0.333c-2.225,6.959 -10.934,6.551 -18.159,4.455Zm23.738,-2.409c-2.125,13.759 -19.963,13.221 -27.821,21.317c0.341,-0.387 0.687,-0.771 0.975,-1.187c-7.796,-7.342 -25.013,2.779 -31.329,-7.755c4.246,-2.191 10.591,-3.683 17.379,-5.275c11.3,7.609 27.842,4.209 40.796,-7.1Zm13.891,38.555c-5.454,4.895 -11.766,9.2 -18.675,12.166c-1.7,0.734 -3.254,1.246 -4.758,1.663c0.442,-2.434 -0.363,-4.767 -2.983,-6.834c-4.129,-3.254 -10.138,0.517 -15.921,5.371c-1.375,-0.462 -2.792,-0.958 -4.317,-1.504c-5.912,-2.1 -15.354,-3.1 -8.304,5.721c1.108,1.396 2.567,2.454 4.225,3.266c-2.175,1.926 -4.117,3.509 -5.629,4.221c-1.617,0.763 -3.238,1.4 -4.85,1.95c-2.954,-0.962 -5.625,-2.179 -7.704,-3.5c-5.379,-3.425 -12.409,-16.212 -19.496,-12.237c-0.138,6.379 2.533,11.912 6.7,16.383c-3.196,-0.966 -6.35,-2.425 -9.429,-4.529c-11.75,-8.017 -18.825,-19.388 -24.08,-31.767c16.446,15.238 37.296,25.259 54.888,13.175c-2.938,-6.037 -11.538,-8.304 -17.542,-11.737c10.071,1.075 28.009,-0.717 35.613,-8.425l-0.575,0.646c8.587,7.95 30.404,-3.088 37.942,-8.904c7.962,-6.138 15.808,-16.75 17.445,-26.888c0.738,8.925 -7.804,19.288 -10.641,28.45c-1.571,5.092 -2.392,11.354 4.016,10.746c2.721,-0.258 5.063,-2.596 7.013,-5.454c-3.021,6.883 -6.821,12.529 -12.938,18.021Zm-18.079,44.17c1.329,1.579 2.833,2.371 4.446,2.579c-6.038,5.688 -12.854,10.113 -21.529,13.171c-9.571,3.38 -20.063,4.621 -29.846,1.509c-0.958,-0.305 -2.125,-0.796 -3.383,-1.35c3.696,0.141 7.608,0.062 11.866,-0.2c-1.837,-4.917 -6.85,-8.555 -11,-12.484c3.8,1.134 14.346,3.021 18.596,0.838c4.246,-2.183 4.846,-6.329 1.659,-8.946c13.791,-0.188 27.362,-3.338 37.212,-12.463c-5.308,6.371 -10.929,13.884 -8.021,17.346Zm2.725,32.971l1.084,-1.029c-0.33,0.387 -0.663,0.796 -0.996,1.217l-0.088,-0.188Zm-45.487,0.338c9.254,-1.521 19.12,-5.467 25.354,-6.2c-0.496,1.208 -1.217,2.329 -2.034,3.404c-8.037,3.133 -15.887,3.917 -23.32,2.796Zm49.333,30.825c-3.433,9.47 -10.954,16.416 -20.413,20.137c-8.379,3.296 -18.429,4.934 -27.345,5.263c-5.784,0.216 -13.421,-1.579 -18.467,1.354c4.421,13.275 24.104,6.354 32.763,4.508c-0.921,12.821 -18.238,6.421 -27.667,5.208c-12.979,-5.191 -24.042,-16.12 -29.854,-30.491c10.683,7.825 61.412,18.771 62.662,-3.804c-9.021,-0.163 -21.658,0.521 -26.721,-7.717c7.455,0.45 32.809,-2.454 45.421,-10.329c0.759,1.896 2.617,3.379 6.167,4.083c1.737,0.346 3.296,0.392 4.708,0.196c-0.575,2.533 -1.375,4.85 -2.629,6.675c-4.2,6.117 -14.546,7.75 -20.929,10.483c7.621,4.1 15.646,-3.908 22.304,-5.566Zm-21.012,100.654c-2.255,0.158 -5.234,0.212 -8.48,0.071c8.65,-5.429 13.134,-15.267 19.992,-22.334c-0.038,9.355 -5.071,16.18 -11.512,22.263Zm-22.459,-2.008c-4.346,-1.296 -7.896,-3.317 -9.487,-6.305c4.637,-1.058 9.141,-2.866 13.47,-5.15c3.296,-0.016 6.575,-0.195 9.621,-0.808c-3.575,4.517 -8.412,8.708 -13.604,12.263Zm23.692,-46.755c1.117,-0.091 2.229,-0.191 3.354,-0.329c-0.367,0.417 -0.779,0.796 -1.162,1.196c-0.73,-0.3 -1.459,-0.588 -2.192,-0.867Zm-49.334,-0.583l0.005,-0.063l0.158,0.109l-0.163,-0.046Zm-0.345,10.017c5.72,7.758 19.708,10.504 28.029,9.325c6.05,-0.859 16.658,-4.571 23.933,-9.796c0.488,-0.3 0.909,-0.679 1.354,-1.025l0.792,-0.6c-2.879,4.529 -5.475,9.229 -10.579,12.662c-2.013,1.35 -4.238,2.563 -6.571,3.688c-14.138,-2.034 -34.354,1.387 -36.958,-14.254Zm-12.934,76.721c-3.212,-4.192 -5.683,-8.617 -5.025,-14.709c3.621,7.429 10.271,12.409 18.009,15.704c-4.392,-0.275 -8.938,-0.762 -12.984,-0.995Zm9.892,-182.751c0.292,1.805 0.725,3.388 1.258,4.805c-8.27,-5.738 -15.458,-13.55 -21.029,-22.259c6.908,5.867 13.383,9.496 20.338,11.596c-0.754,1.146 -1.03,2.983 -0.567,5.858Zm-117.663,18.738c6.876,4.612 19.367,4.371 23.059,-4.217c-5.792,16.196 -14.163,26.029 -27.1,30.1c0.792,-2.312 0.562,-4.496 -1.333,-6.35c-4.1,3.509 -8.563,6.55 -13.33,8.504c-1.783,0.034 -3.612,0.017 -5.529,-0.087c-12.675,-0.696 -26.058,-10.062 -38.196,-13.8c-2.22,-2.5 -3.658,-5.171 -3.75,-7.912c3.959,4.433 22.321,19.312 25.663,8.045c-7.096,-3.916 -24.058,-7.787 -21.438,-19.296c8.992,5.605 21.13,9.159 32.025,5.392c5.321,-1.842 11.984,-7.662 14.692,-14.062c15.487,9.358 30.758,-9.692 45.533,-10.917c-3.67,18.762 -16.187,17.825 -30.296,24.6Zm-5.045,70.613c-0.646,14.82 25.15,0.42 30.512,-4.496c-8.321,11.621 -17.012,21.783 -33.291,26.208c-13.313,3.617 -24.796,-1.137 -36.317,-7.4c-1.984,-1.075 -4.346,-2.588 -6.779,-3.942c2.32,0.125 5.662,1.171 7.412,1.525c12.329,2.509 35.863,-2.983 33.184,-20.445c-5.713,-0.842 -9.467,4.966 -14.813,6.475c-4.463,1.262 -13.717,1.804 -18.233,0.624c-7.605,-1.979 -11.942,-8.662 -14.292,-15.599c-0.888,-2.609 -1.504,-5.284 -2.079,-7.967c3.133,0.971 6.458,1.583 9.85,1.921c4.596,2.754 9.4,4.887 13.962,6.221c23.059,6.741 44.705,-4.467 62.584,-17.934c-0.438,16.675 -13.009,35.85 -31.7,34.809Zm-3.825,100.116c-1.034,9.434 5.883,13.263 13.687,13.929c-4.958,3.084 -9.425,3.65 -15.604,4.146c-18.133,1.45 -31.204,-0.671 -44.737,-13.575c5.12,4.413 30.458,14.467 32.537,2.55c-0.054,0.313 -23.567,-7.166 -25.579,-8.2c8.521,-2.983 37.971,3.525 44.987,-7.125c10.742,-3.487 18.938,-11.687 29.159,-15.946c2.825,19.784 -21.325,21.084 -34.45,24.221Zm-19.084,-51.346c-13.933,0.767 -22.2,-4.208 -27.516,-15.608c17.787,7.804 52.971,1.096 64.483,5.129c-0.725,0.375 -3.233,1.279 -6.608,2.434c0.021,-0.467 0.062,-0.93 0.041,-1.405c-9.066,-0.908 -20.112,8.888 -30.4,9.45Zm-31.55,4.871c11.088,8.35 24.509,15.3 38.804,11.121c3.425,-1 7.071,-2.721 10.438,-4.987c12.346,-2.2 26.083,-8.567 30.5,-12.371c-21.829,20.812 -42.917,24.233 -72.154,21.891c-0.5,-0.041 -0.963,-0.087 -1.45,-0.129c-3.759,-4.242 -5.992,-10.092 -6.138,-15.525Zm-9.654,-161.829c6.713,3.137 23.796,10.862 27.571,-0.275c-4.662,-2.2 -13.558,3.421 -16.458,-2.996c3.996,-1.362 8.795,-1.212 13.587,-1.092c5.15,4.525 12.104,7.601 19.383,9.396c-2.958,2.509 -5.858,6.404 -7.274,7.534c-10.996,8.771 -40.784,7.716 -36.809,-12.567Zm18.954,-11.433c-1.687,-0.838 -3.029,-2.513 -3.825,-5.438c0.563,-0.033 1.13,-0.041 1.7,-0.054c0.475,1.958 1.196,3.788 2.125,5.492Zm35.909,27.279c-3.463,-0.459 -6.609,1.392 -9.2,3.783c2.783,-3.762 5.858,-9.629 5.812,-13.221c6.696,0.867 13.254,0.713 18.538,-0.362c5.858,-1.192 22.912,-7.25 12.933,5.429c-4.917,6.258 -18.496,6.304 -27.85,7.95c0.108,-1.204 0.05,-2.408 -0.233,-3.579Zm-53.35,-65.288c2.458,9.3 30.021,25.867 35.954,12.696c3.446,-7.646 -23.088,1.254 -20.671,-10.483c2.783,0.958 26.496,6.971 21.317,-3.896c-2.359,-4.946 -20.621,0.833 -25.83,-2.146c-5.2,-2.979 -7.087,-8.437 -9.629,-13.716c5.421,6.5 20.255,6.666 20.396,0.329c10.729,7.958 23.279,14.233 27.925,15.041c14.729,2.571 31.154,2.484 45.221,-1.866c-0.925,4.325 -1.925,8.641 -3.35,12.845c-3.8,11.192 -10.792,21.971 -23.046,25.163c-5.637,1.467 -15.812,1.267 -23.479,0.167c0.208,-0.746 0.429,-1.467 0.579,-2.317c-1.875,-0.971 -4.566,-0.383 -7.596,0.779c-1.541,-0.55 -3.008,-1.296 -4.429,-2.15l0.183,-0.079c3.125,-1.675 13.121,-10.688 6.575,-13.942c-3.804,-1.891 -9.362,6.013 -13.82,7.209c-0.934,0.25 -1.967,0.337 -2.988,0.433c-2.571,-1.263 -5.275,-2.004 -8.333,-1.554l-0.092,0.862c-1.817,-0.458 -3.554,-1.025 -4.991,-1.816c-4.867,-2.671 -7.846,-7.742 -10.438,-12.721c0.321,-3.192 0.058,-7.188 0.542,-8.838Zm12.329,-25.05c1.512,1.513 3.162,3.009 4.916,4.467c-5.287,-0.546 -13.495,0.813 -13.133,-7.504c2.358,1.6 5.434,2.933 8.217,3.037Zm-116.729,294.609c-0.925,5.375 4.379,8.016 8.47,10.304c-7.804,-2.296 -7.708,3.45 -3.262,7.962c0.446,0.455 1.013,0.821 1.533,1.221c-4.491,5.117 -9.271,8.471 -16.437,9.338c-3.383,0.408 -14.992,0.241 -13.971,-5.379c4.262,-0.226 10.238,0.937 13.487,-2.134c-3.687,-6.254 -22.387,2.209 -19.675,-12.304c4.601,3.529 18.75,8.442 22.776,1.9c-1.73,-1.821 -4.446,-1.475 -5.846,-3.625c3.795,-2.896 13.358,-1.2 13.033,-8.667c-0.292,-6.754 -6.217,-0.012 -9.083,2.092c-11.071,8.129 -24.863,2.013 -29.688,-9.925c4.304,3.15 24.721,7.558 25.225,-1.529c-3.633,-0.067 -8.721,0.208 -10.758,-3.104c2,0.116 7.196,-0.363 11.946,-1.634c0.066,0.617 0.158,1.188 0.308,1.6c2.687,7.571 17.113,10.963 23.617,13.817c-3.875,-0.096 -7.834,-0.133 -11.675,0.067Zm-10.33,-22.888l-0.195,0.138l-0.242,0.012l0.437,-0.15Zm478.634,34.525l-0,-44.929c-1.984,-1.279 -3.846,-2.658 -5.563,-4.146c2.004,0.346 3.875,-0.071 5.563,-1.321l-0,-7.304c-3.304,-1.604 -8.463,-2.704 -10.454,-4.846c-2.679,-2.866 -4.267,-7.554 -3.917,-11.212c4.204,3.737 9.138,5.729 14.371,6.754l-0,-13.5c-4.108,-3.65 -6.821,-8.996 -7.909,-14.325c2.538,1.538 5.188,2.975 7.909,4.275l-0,-13.983c-2.904,-2.059 -5.763,-4.175 -8.604,-6.342c2.491,0.262 5.737,0.033 8.604,-0.792l-0,-7.191c-8.208,-4.559 -19.275,-9.825 -18.75,-18.617c6.387,2.371 12.517,5.567 18.75,8.383l-0,-19.15c-7.254,-3.746 -14.208,-8.262 -20.734,-13.125c-4.558,-3.391 -7.854,-7.195 -10.525,-11.266c6.513,3.945 13.992,5.171 22.496,1.271c-5.9,-7.251 -16.966,-8.813 -21.083,-18.488c6.188,7.583 19.362,8.783 29.846,7.871l-0,-9.713c-1.909,-0.204 -3.7,-0.72 -5.175,-2.025c1.379,-0.629 3.175,-1.137 5.175,-1.604l-0,-8.583c-7.383,2.162 -14.775,1.208 -22.529,-4.371c-14.43,-10.379 -26.171,-28.238 -31.271,-46.179c7.483,11.004 19.404,19.558 32.066,22.979c2.955,0.796 18.038,3.846 17.484,-2.192c-0.296,-3.204 -10.638,-4.966 -12.984,-6.321c-3.758,-2.162 -7.212,-5.212 -9.549,-8.674c8.087,4.095 17.633,5.591 26.783,4.529l-0,-21.588c-4.996,5.354 -9.821,9.896 -19.492,6.5c1.117,-6.866 13.021,-8.087 11.567,-15.858c-1.954,-10.438 -10.254,3.9 -15.134,5.137c-13.162,3.342 -21.866,-6.254 -27.645,-17.583c2.05,0.146 3.446,-2.221 3.508,-9.167c0.454,5.363 12.217,21.025 17.808,20.204c6.692,-0.983 1.671,-12.983 0.446,-16.499c6.721,5.108 12.354,10.087 21.067,9.912c2.45,-0.05 5.304,-0.388 7.875,-1.238l-0,-8.566c-8.763,0.554 -20.775,0.925 -18.75,-8.25c6.633,-0.158 13.137,-0.263 18.75,-2.188l-0,-4.466c-6.329,1.875 -13.042,2.17 -16.783,-2.921c2.037,-1.484 9.404,-4.859 16.783,-9.179l-0,-10.63c-6.467,5.734 -13.621,10.255 -22.838,7.871c-9.166,-2.371 -14.179,-9.637 -18.162,-17.704c2.121,-1.987 1.012,-8.85 0.412,-11.016c2.4,2.029 8.438,12.708 11.959,11.624c4.92,-1.52 -1.846,-14.458 -3.817,-16.683c5.442,3.617 10.462,13.083 18.687,9.8c4.655,-1.858 6.305,-6.271 0.93,-9.162c3.25,0.058 9.354,0.95 12.829,-0.688l-0,-6.383c-0.588,-0.1 -1.221,-0.167 -1.934,-0.146c0.659,-0.075 1.301,-0.229 1.934,-0.413l-0,-3.704c-5.971,3.821 -10.984,7.192 -19.95,5.58c-11.8,-2.126 -23.042,-13.071 -28.375,-24.984c3.825,2.646 8.033,4.734 12.475,6.125c1.541,0.484 3.412,0.821 4.604,-0.266c1.892,-1.717 0.2,-4.792 -1.504,-6.696c2.342,1.6 5.846,1.17 7.733,-0.95c-2.087,-2.629 -5.825,-5.884 -9.1,-6.621c7.446,0.125 14.908,-0.588 22.2,-2.121c1.929,-0.404 3.896,-0.892 5.513,-2.025c1.612,-1.133 2.812,-3.063 2.541,-5.017c-0.275,-1.941 -1.933,-3.462 -3.775,-4.146c-1.354,-0.5 -2.804,-0.633 -4.254,-0.666c2.075,-0.333 3.967,-1.988 4.038,-4.079c0.083,-2.621 -4.496,-4.617 -6.571,-3.017c1.158,-2.229 3.454,-3.583 5.637,-4.829c2.175,-1.246 4.467,-2.617 5.596,-4.863c1.125,-2.241 0.417,-5.575 -1.983,-6.296c-1.721,-0.516 -3.567,0.484 -4.758,1.826c-1.196,1.345 -1.942,3.02 -3.013,4.462c-2.638,3.558 -7.079,5.458 -11.492,5.871c-4.412,0.408 -8.837,-0.513 -13.112,-1.675c-3.454,-0.942 -6.913,-2.071 -9.888,-4.05c-2.929,-1.942 -5.279,-4.704 -6.812,-7.858c0.812,0.116 1.637,0.054 2.412,-0.263c1.78,-0.737 2.771,-3.042 2.142,-4.738c2.233,3.28 5.142,6.096 8.508,8.209c1.325,-1.167 0.33,-3.279 -0.375,-4.9c-0.708,-1.621 -1.275,-4.854 0.455,-4.496c2.695,2.475 6.066,4.2 9.649,4.942c1.521,-2.975 -1.704,-6.088 -4.52,-7.884c-3.071,-1.954 -6.584,-4.145 -9.654,-6.104c2.212,-2.612 5.345,-1.583 6.262,-5.383c-7.842,-1.317 -13.704,-2.15 -19.063,-9.421c-3.395,-4.604 -7.187,-11.908 -7.254,-17.779c-0.008,-0.817 0.271,-2.009 0.609,-3.354c0.095,-0.371 0.187,-0.754 0.287,-1.142c2,6.771 5.729,13.038 12.417,11.446c-1.834,-7.946 -10.371,-15.9 -9.246,-24.525c7.279,1.725 5.796,12.808 11.875,14.404c8.217,2.167 -0.662,-9.417 -0.938,-12.063c3.342,3.484 15.855,7.509 18.959,1.276c3.458,-6.934 -8.454,-10.038 -12.729,-11.517c-7.321,-2.542 -10.088,-5.096 -13.642,-12.2c-6.596,-13.179 -9.317,-27.438 -12.354,-41.729c2.125,10.316 -1.313,29.254 -6.358,40.691c-4.113,9.317 -10.538,23.43 -21.113,26.367c-3.829,1.062 -18.279,2.858 -4.879,5.65c8.591,1.788 14.121,-5.733 18.433,-11.546c1.159,9.579 -5.258,13.154 -11.308,18.65c8.558,1.454 15.475,-3.658 18.542,-10.825c-0.996,6.017 -1.855,12.604 -0.55,14.546l-0.2,0.554c-2.496,6.446 -7.65,11.513 -13.084,15.588c-6.633,4.975 -23.333,11.862 -26.167,19.725c6.021,1.458 10.146,-1.717 13.971,-5.446c-2.941,3.4 -5.354,7.246 -7.091,11.387c4.612,1.105 9.533,-0.55 13.379,-3.329c3.846,-2.779 6.8,-6.583 9.7,-10.337c-1.417,5.362 -2.708,10.758 -3.867,16.183c4.304,-1.529 7.659,-5.4 8.679,-9.838c-0.237,1.559 -0.391,3.125 -0.475,4.7c-3.712,5.288 -7.433,10.576 -11.145,15.863c-1.709,2.421 -3.442,4.879 -5.763,6.713c-2.529,1.987 -5.613,3.129 -8.696,4.045c-12.208,3.629 -25.321,4.171 -37.792,1.563c1.142,-1.796 1.813,-3.625 1.759,-5.463c-0.475,-16.129 -11.629,2.134 -14.45,5.759c-9.967,12.791 -21.609,21.812 -38.375,16.754c-17.471,-5.275 -20.304,-20.588 -24.233,-35.988c10.716,11.125 22.104,15.763 37.954,15.438c-11.246,-6.425 -18.034,-14.65 -18.905,-27.917c6.413,14.775 17.634,22.992 33.413,17.871c-10.617,-3.675 -19.012,-12.862 -22.858,-23.375c12.271,11.508 21.391,13.625 38.329,10.192c9.5,-1.925 29.3,-9.371 16.796,-22c-15.492,9.85 -32.95,18.191 -50.179,6.558c-4.976,-3.358 -8.626,-7.779 -11.83,-12.617c9.488,3.167 20.355,4.13 28.167,1.029c-8.167,-3.912 -26.946,-9.679 -29.033,-19.162c12.212,5.233 30.979,9.108 42.933,-0.133c14.313,-11.067 -1.2,-10.371 -11.762,-10.23c4.82,-1.887 10.691,-3.379 13.854,-7.816c-4.146,-5.217 -10.346,-4.804 -16.788,-5.408c5.434,-3.151 23.684,-9.463 17.979,-20.363c-6.225,-11.888 -16.458,4.075 -21.941,7.817c-17.334,11.825 -28.142,1.162 -35.625,-12.675c6.4,3.529 25.087,12.787 21.283,-3.888c-6.175,1.871 -16.863,1.95 -18.946,-5.154c9.125,0.338 28.442,-5.362 21.421,-18.108c-20.442,21.512 -29.808,-5.871 -35.438,-25.842c4.455,2.621 8.371,6.387 13.684,6.213c-1.2,-5.096 -6.65,-9.538 -9.996,-13.476c5.213,3.88 21.696,7.601 20.517,-3.02c-0.546,-4.921 -12.934,-10.692 -16.75,-14.446c-17.592,-17.296 -19.296,-34.334 -21.917,-57.617c-0.117,12.433 -2.283,31.1 -8.35,40.579c-9.025,14.113 -37.133,16.009 -41.692,29.93c8.167,4.333 14.65,-1.525 20.213,-7.009c-0.088,8.729 -13.871,10.821 -15.104,19.884c10.646,4.987 18.812,-4.475 21.8,-13.509c0.32,4.079 -5.113,16.371 -2.405,19c5.738,5.579 8.492,-7.358 9.092,-11.279c2.921,6.467 2.071,13.8 2.488,21.004l0.629,0.179c-0.404,4.613 -1.621,8.888 -5.942,12.596c-8.175,7.017 -21.454,3.638 -30.742,7.271c3.084,12.75 16.134,9.125 24.08,3.733c0.841,19.292 -26.938,6.288 -28.13,16.6c-1.3,11.2 23.913,11.209 32.917,0.4c-4.096,8.517 -7.141,17.321 -15.529,22.125c-8.4,4.809 -37.854,-4.512 -41.654,3.463c-8.35,17.525 29.887,7.829 34.379,6.279c3.896,18.933 -38.896,4.579 -33.342,16.908c9.567,21.246 54.021,-5.47 57.988,-20.471c0.779,2.663 0.362,9.105 0.883,14.246c-4.183,8.038 -8.992,16.213 -16.841,20.521c-7.138,3.921 -18.267,5.546 -26.455,3.35c-7.195,-1.933 -16.154,-14.683 -22.296,-11.629c-10.549,5.246 5.563,19.788 10.605,22.483c9.808,5.25 21.596,2.884 32.146,3.559c-6.988,25.587 -39.28,-7.4 -51.242,-1.221c5.808,32.654 37.933,16.408 57.717,23.154c-4.675,10.346 -19.026,1.283 -26.542,4.833c6.087,17.959 33.637,5.504 44.467,0.442c6.412,32.717 -41.634,34.412 -59.367,20.267c-4.283,-3.421 -17.025,-22.675 -22.975,-13.021c-2.933,4.754 3.283,17.092 8.696,24.417c-4.18,-3.859 -9.259,-6.846 -14.842,-6.105c-3.483,14.392 13.067,31.45 25.217,35.654c17.579,6.076 37.154,0.342 51.654,-8.695c4.229,18.562 -23.129,24.808 -34.575,31.125c5.387,18.162 35,-5.829 41.387,-12.979c-0.595,17.425 -34.687,33.125 -48.458,37.129c-18.729,5.446 -35.462,-3.588 -49.608,-15.684c-4.038,3.942 -3.534,8.817 -0.475,13.867c-2.417,-0.396 -4.696,-1.117 -6.546,-2.704c-2.675,-2.3 -3.433,-4.946 -3.684,-7.808l0.388,-0.109c0.262,-4.471 -0.267,-9.016 1.546,-13.025c0.371,2.429 2.079,10.45 5.637,6.992c1.675,-1.629 -1.691,-9.25 -1.487,-11.779c1.85,5.6 6.912,11.466 13.512,8.375c-0.766,-5.621 -9.312,-6.917 -9.362,-12.325c3.446,3.396 7.467,7.029 12.533,4.341c-2.829,-8.629 -20.262,-9.808 -25.854,-18.558c-3.758,-5.875 -5.104,-17.454 -5.179,-25.162c-1.621,14.437 -2.679,25.004 -13.583,35.729c-2.371,2.325 -10.05,5.908 -10.388,8.954c-0.729,6.587 9.488,4.279 12.721,1.875c-2.075,2.442 -5.454,5.196 -6.2,8.354c3.296,0.108 5.725,-2.225 8.483,-3.854c-3.487,12.383 -9.291,29.362 -21.966,16.025c-4.355,7.904 7.625,11.437 13.274,11.225c-1.291,4.404 -7.912,4.358 -11.741,3.2c-2.363,10.337 9.229,4.596 13.196,2.408c-4.642,8.579 -11.342,15.192 -22.088,7.859c-3.404,-2.317 -9.75,-12.213 -13.608,-4.842c-3.538,6.754 7.779,10.671 11.15,12.621c-3.996,0.375 -7.838,0.116 -10.413,3.354c1.963,2.75 5.605,3.675 8.596,4.846c-6.554,-0.088 -16.171,-0.517 -7.296,6.341c7.413,5.734 19.05,3.325 26.617,0.084c-1.292,5.883 -12.933,9.454 -18,11.883c4.846,1.921 11.583,1.325 17.463,-0.637c-1.984,2.995 -4.246,5.737 -7.33,7.82c-10.687,7.213 -21.512,2.042 -31.112,-4.066c-7.758,7.833 4.521,12.45 10.412,13.641c10.5,2.125 16.159,0.817 23.767,-6.316c-2.383,6.516 -7.592,12.212 -14.175,14.491c9.783,3.175 16.742,-1.92 20.717,-11.083c-0.538,8.225 -4.746,13.325 -11.721,17.308c9.825,0.204 16.887,-2.671 23.529,-9.571c-2.433,9.55 -4.192,19.046 -15.021,22.313c-10.396,3.142 -17.617,-2.454 -23.792,-10.388c-1.749,-2.245 -8.666,-13.57 -8.966,-3.566c-0.175,5.875 11.475,11.716 15.141,14.575c-7.554,1.821 -10.862,-4.138 -16.549,-6.896c-7.734,14.596 25.083,17.425 30.895,19.987c-5.212,10.538 -20.95,7.238 -29.296,3.155c-6.029,10.046 33.155,15.225 41.18,3.304c-3.579,9.925 -17.15,16.854 -27.713,16.679c4.263,4.425 13.929,6.817 19.25,2.425c-7.275,7.083 -14.346,11.871 -25.041,10.233c-12.346,-1.887 -16.817,-9.229 -24.609,-16.741c-7.517,18.921 20.625,17.941 30.496,23.029c-3.912,6.529 -14.592,0.258 -19.425,4.808c3.971,5.733 16.321,7.063 23.025,6.346c-3.721,2.129 -9.05,3.533 -10.871,7.275c10.904,7.496 23.834,1.283 34.029,-8.167c-3.254,7.675 -7.645,14.725 -14.929,19.696c-6.866,4.692 -14.271,4.642 -21.566,1.2c-4.196,-1.979 -13.584,-14.512 -18.567,-10.587c-8.408,6.625 13.125,17.716 17.771,18.566c-6.734,0.1 -7.779,4.959 -3.813,7c2.638,1.355 9.175,0.184 11.529,-0.516c-2.57,2.437 -5.679,4.691 -6.816,7.741c12.254,0.755 20.15,-0.75 29.3,-8.516c-9.854,15.4 -27.754,26.541 -46.65,14.966c-2.684,-1.641 -11.267,-16.883 -13.129,-7.929c-1.326,6.367 11.675,13.258 16.016,14.384c-3.5,0.1 -8.154,-1.15 -11.029,-2.276c-6.796,12.175 24.821,16.375 31.708,15.959c-3.141,5.104 -10.975,4.679 -16.571,4.783c0.78,13.996 32.23,7.209 38.855,2.359c-7.434,18.379 -28.675,27.808 -45.729,15.279c-4.413,-3.238 -13.538,-13.621 -13.988,-3.217c-0.5,11.5 14.229,8.888 20.079,13.346c-2.162,3.312 -6.35,2.783 -9.004,5.587c6.196,10.075 27.983,2.504 35.079,-2.929c4.171,22.35 -24.629,9.321 -30.312,18.95c5.008,4.729 14.204,2.942 20.779,3.292c1.571,8.658 -16.313,8.912 -21.521,8.283c-11.779,-1.425 -19.367,-7.167 -26.7,-15.967l-0.725,-1.062c1.467,-1.383 1.992,-3.063 0.862,-5.096c-0.879,0.342 -2.02,0.696 -3.208,0.975c-0.404,-0.316 -0.883,-0.512 -1.546,-0.446c3.571,-1.679 8.667,-5.125 7.988,-8.391c-1.208,-5.813 -6.779,4.083 -8.521,5.15c-12.271,7.516 -23.888,0.279 -30.292,-9.717c5.942,5.042 11.071,6.017 19.025,5.529c-0.741,-1.983 -2.758,-3.446 -4.429,-5.029c1.534,0.458 5.779,1.217 7.488,0.338c2.575,-1.326 1.895,-4.48 -2.475,-4.546c3.016,-0.554 17,-7.75 11.537,-12.054c-3.233,-2.55 -9.329,5.587 -12.058,6.874c-4.734,2.234 -9.542,2.267 -14,-0.779c-4.729,-3.229 -7.575,-7.804 -9.692,-12.787c6.625,6.133 15.013,10.171 22.096,5.304c-1.183,-2.433 -4.646,-3.346 -7.063,-4.725c4.355,0.463 12.376,-0.4 14.95,-4.121c-3.137,-2.954 -10.066,1.117 -12.608,-3.121c6.409,-3.304 24.679,-2.67 19.8,-14.954c-5.062,4.879 -7.962,9.646 -15.979,10.871c-6.946,1.063 -11.538,-2.046 -16.258,-6.646c3.454,2.85 9.729,1.3 12.5,-1.575c-6.859,0.117 -15.671,-4.383 -17.996,-10.825c5.212,7.738 30.654,4.375 26.737,-2.15c-5.421,2.654 -15.637,4.796 -19.016,-2.046c3.771,-1.662 25.075,-3.5 20.054,-12.975c-3.692,1.788 -5.838,5.659 -10.746,4.475c2.383,-1.854 9.946,-5.645 9.829,-9.462c-0.187,-6.496 -4.683,0.854 -5.816,2.317c-4.009,5.149 -8.7,8.783 -15.446,6.745c-7.034,-2.125 -8.175,-8.287 -9.755,-14.487c4.309,4.479 8.896,6.346 15.276,6.212c-4.525,-2.583 -7.259,-5.896 -7.609,-11.237c2.579,5.95 7.096,9.258 13.45,7.196c-4.275,-1.479 -7.654,-5.179 -9.204,-9.413c4.942,4.634 8.613,5.488 15.433,4.104c3.825,-0.775 11.796,-3.77 6.763,-8.854c-6.238,3.963 -13.267,7.321 -20.2,2.642c-2.004,-1.359 -3.475,-3.133 -4.767,-5.084c3.821,1.276 8.196,1.663 11.342,0.417c-3.288,-1.579 -10.846,-3.896 -11.688,-7.717c4.917,2.109 12.471,3.667 17.284,-0.054c5.762,-4.454 -0.484,-4.175 -4.738,-4.116c1.942,-0.759 4.304,-1.359 5.579,-3.146c-1.666,-2.1 -4.166,-1.933 -6.758,-2.175c2.183,-1.271 9.533,-3.813 7.237,-8.2c-2.504,-4.783 -6.624,1.641 -8.833,3.15c-6.979,4.758 -11.329,0.462 -14.337,-5.104c2.575,1.421 10.1,5.146 8.562,-1.563c-2.483,0.75 -6.783,0.784 -7.625,-2.079c3.671,0.138 11.45,-2.158 8.625,-7.292c-8.233,8.663 -12,-2.358 -14.267,-10.4c1.796,1.055 3.367,2.575 5.509,2.5c-0.483,-2.05 -2.675,-3.837 -4.025,-5.425c2.1,1.563 8.733,3.063 8.262,-1.212c-0.225,-1.983 -5.208,-4.304 -6.745,-5.817c-7.084,-6.962 -7.767,-13.825 -8.825,-23.196c-0.042,5.005 -0.917,12.521 -3.359,16.338c-3.629,5.679 -14.946,6.446 -16.787,12.046c3.287,1.745 5.9,-0.613 8.141,-2.817c-0.037,3.513 -5.583,4.354 -6.079,8c4.284,2.008 7.571,-1.8 8.771,-5.437c0.129,1.641 -2.054,6.591 -0.962,7.65c2.304,2.245 3.416,-2.963 3.658,-4.542c1.175,2.604 0.833,5.554 1,8.458l0.254,0.071c-0.163,1.858 -0.654,3.575 -2.392,5.071c-3.291,2.821 -8.637,1.462 -12.375,2.925c1.238,5.133 6.492,3.675 9.692,1.504c0.342,7.767 -10.846,2.529 -11.325,6.683c-0.521,4.509 9.629,4.513 13.25,0.163c-1.646,3.425 -2.871,6.971 -6.25,8.904c-3.379,1.933 -15.237,-1.817 -16.767,1.392c-3.362,7.058 12.034,3.154 13.838,2.529c1.571,7.621 -15.659,1.846 -13.421,6.808c3.85,8.55 21.746,-2.204 23.342,-8.241c0.316,1.07 0.146,3.662 0.354,5.733c-1.679,3.237 -3.617,6.525 -6.775,8.262c-2.875,1.575 -7.354,2.234 -10.65,1.35c-2.896,-0.779 -6.504,-5.912 -8.975,-4.683c-4.246,2.112 2.237,7.962 4.271,9.05c3.945,2.112 8.691,1.163 12.937,1.433c-2.812,10.3 -15.812,-2.979 -20.629,-0.491c2.337,13.146 15.275,6.604 23.237,9.32c-1.883,4.163 -7.658,0.517 -10.683,1.946c2.446,7.23 13.542,2.213 17.896,0.179c2.583,13.167 -16.758,13.851 -23.896,8.159c-1.725,-1.379 -6.854,-9.129 -9.25,-5.246c-1.179,1.917 1.321,6.883 3.5,9.829c-1.679,-1.55 -3.725,-2.75 -5.971,-2.454c-1.404,5.792 5.255,12.658 10.146,14.35c7.075,2.45 14.958,0.142 20.796,-3.496c1.704,7.471 -9.312,9.984 -13.917,12.529c2.167,7.313 14.088,-2.35 16.663,-5.225c-0.242,7.013 -13.967,13.334 -19.509,14.946c-7.541,2.192 -14.279,-1.446 -19.97,-6.312c-6.038,5.896 13.033,16.962 17.095,17.671c5.921,1.033 12.538,1 18.205,-0.75c-0.375,1.741 -0.78,3.479 -1.355,5.166c-1.529,4.508 -4.341,8.846 -9.274,10.129c-2.934,0.767 -8.946,0.417 -11.842,-0.404c-3.471,-0.979 -5.908,-4.75 -9.617,-4.204c-1.737,11.342 13.542,14.904 21.542,13.275c2.362,-0.479 9.225,-2.921 5.208,2.183c-2.404,3.059 -9.95,2.429 -13.35,3.746c6.808,6.479 13.521,-2.604 19.996,-3.141c-1.475,7.554 -6.512,7.179 -12.2,9.904c2.771,1.858 7.8,1.758 9.287,-1.696c-3.37,9.425 -8.908,13.5 -19.037,12.946c-6.679,-0.367 -13.85,-6.725 -19.737,-6.138c-0.292,7.963 8.083,14.488 15.029,16.521c9.279,2.713 17.995,-1.796 25.196,-7.221c-0.18,6.713 -5.238,14.433 -12.767,14.013c-0.258,5.966 10.129,0.17 12.283,-1.809c-3.346,4.68 -6.846,8.771 -13.4,10.55c-5.358,1.454 -9.983,-0.458 -14.621,-2.979c-2.92,-1.587 -7.941,-5.587 -8.708,0.179c-1.796,13.471 23.587,7.192 30.108,9.475c-1.308,0.671 -16.575,5.525 -16.608,5.321c1.346,7.742 17.8,1.209 21.125,-1.654c-8.787,8.379 -17.275,9.758 -29.046,8.812c-4.566,-0.366 -7.691,-0.787 -11.491,-3.62c-2.063,-1.538 -3.292,-4.13 -5.917,-4.067c1.05,7.796 8.679,15.038 16.262,16.992c5.442,1.395 14.217,1.404 19.638,0.079c4.821,-1.179 8.287,-4.883 12.704,-6.725c1.142,7.962 -8.579,8.487 -13.867,9.75c-0.629,5.729 6.025,6.346 10.209,5.15c6.837,-1.946 9.187,-7.754 13.312,-11.988l0,33.746l5.75,0l0,-27.771c1.388,-1.304 2.008,-3.25 1.817,-5.221c1.55,4.021 2.021,8.934 2.033,13.25c9.483,-2.937 1.533,-10.887 2.113,-16.85c1.883,4.58 8.408,12.08 13.825,9.592c-2.046,-2.633 -4.534,-4.816 -4.125,-8.533c3.483,7.158 13.912,8.721 20.783,8.65c5.254,-0.054 14.254,-0.558 18.271,-4.638c2.887,-2.933 2.946,-6.658 -2.117,-5.171c2.659,-1.487 6.096,-3.2 5.5,-6.691c-2.496,-0.125 -5.066,-0.104 -7.587,-0.042c3.841,-1.683 11.862,-3.679 14.621,-7.712c6.745,2.475 15.358,2.929 21.104,2.983c10.587,0.108 26.641,-2.296 32.012,-13.321c0.621,5.725 -3.204,9.083 -6.358,13.142c8.35,3.833 18.396,-7.717 21.291,-14.771c0.896,9.179 -11.345,21.429 3.259,25.95c0.016,-6.65 0.746,-14.212 3.129,-20.408c-0.287,3.041 0.662,6.037 2.8,8.037l-0,49.525l8.85,0l0,-58.721c6.362,6.517 9.983,15.463 20.508,18.463c6.446,1.841 16.696,0.892 15.729,-7.934c-8.141,-1.945 -23.112,-2.749 -21.362,-15.016c6.804,2.837 12.146,8.537 19.571,10.358c8.35,2.046 21.862,2.034 30.241,-0.121c9.296,-2.396 18.617,-9.954 22.863,-18.987c0.912,-0.179 1.808,-0.379 2.654,-0.617c16.975,-4.841 22.821,-19.271 33.075,-29.783l0,102.358l14.275,0l0,-87.525c3.454,-3.229 4.979,-8.058 4.513,-12.967c3.85,10.001 5.02,22.196 5.05,32.917c23.554,-7.296 3.816,-27.046 5.254,-41.854c2.637,6.425 8.958,15.162 16.383,20.437c-0.166,0.642 -0.162,1.392 0.05,2.284c1.458,6.05 17.475,10.846 22.263,12.362c8.466,2.692 17.704,3.334 26.516,2.25c10.859,-1.333 18.43,-7.366 25.725,-14.004c3.63,-0.371 7.35,-0.917 10.959,-1.708c-2.155,7.267 -8.005,12.133 -15.454,17.133c-8.7,5.834 -17.025,5.3 -26.267,8.779c10.962,17.742 48.817,4.784 60.875,-5.7c5.033,-4.371 11.775,-11.437 16.654,-19.295l-0,86.891l18.421,0l-0,-64.225c0.625,0.388 1.308,0.529 2.062,0.363c7.7,-1.705 11.655,-18.204 11.634,-24.638c5.775,10.996 20.662,46.325 37.645,43.229c21.055,-3.837 -14.012,-24.025 -11.358,-36.35c6.7,7.675 13.375,14.963 21.492,19.696Z" style="fill:#283618;fill-rule:nonzero;"/></g></svg>