<?xml version="1.0" encoding="UTF-8" standalone="no"?><!DOCTYPE svg PUBLIC "-//W3C//DTD SVG 1.1//EN" "http://www.w3.org/Graphics/SVG/1.1/DTD/svg11.dtd"><svg width="100%" height="100%" viewBox="0 0 1351 729" version="1.1" xmlns="http://www.w3.org/2000/svg" xmlns:xlink="http://www.w3.org/1999/xlink" xml:space="preserve" xmlns:serif="http://www.serif.com/" style="fill-rule:evenodd;clip-rule:evenodd;stroke-linejoin:round;stroke-miterlimit:2;"><g id="left"><path d="M60.8,648.446l45.833,-6.996l18.634,35.454l94.45,-176.783l18.9,-33.35l27.483,-4.958l64.921,38.308l24.317,53.708l35.687,8.325l106.271,-7.341l72.137,-10.867l22.734,32.558l61.446,-165.3l38.591,2.046l46.229,29.783l88.388,-66.241l54.346,-109.363l52.179,-22.391l39.037,43.691l30.6,12.042l82.042,-133.646l36.975,-18.95l21.942,-35.429l71.562,-41.909l7.196,-30.145l19.767,-1.184l24.504,-28.854l16.854,-10.654l20.708,8.433l30.421,-4.433l15.409,7.537l-0,717.192l-1350.36,0l60.8,-80.283Z" style="fill:#bc6c25;fill-rule:nonzero;"/><path d="M692.204,413.25l-34.337,42.788l13.083,-0l-36.504,31.545l-42.279,88.921l61.446,-165.296l38.591,2.042Z" style="fill:#dda15e;fill-rule:nonzero;"/><path d="M738.433,443.033l88.392,-66.241l54.342,-109.363l52.179,-22.391l10.942,12.241l-25.634,8.329l-32.541,45.567l-48.792,57.829l33.325,-23.45l-54.971,122.167l7.267,-59.283l-84.509,34.595Z" style="fill:#dda15e;fill-rule:nonzero;"/><path d="M927.096,421.35l39.704,-86.225l12.5,-11.867l-0.333,12.45l-9.604,20.671l13.445,-16l20.175,-39.608l82.042,-133.646l36.975,-18.946l21.942,-35.433l71.562,-41.909l7.196,-30.145l19.767,-1.188l24.504,-28.85l16.854,-10.65c0,0 -17.971,102.054 -19.254,103.808l-38.421,77.105l57.675,-70.971l2.05,-0.271l-17.458,35.754l28.762,-37.229l6.779,-0.883l-86.454,137.721l37.688,-3.946l-10.788,16.929l17.288,-12.983l-28.817,41.02l61.475,-49.066l-226.371,304.912l-116.933,45.358l68.262,-103.516l-258.008,177.121l-174.942,67.862l-31.491,0l372.229,-307.379Z" style="fill:#dda15e;fill-rule:nonzero;"/><path d="M106.633,641.45l-23.3,16.942l-22.916,25.141l35.416,-21.041l-35.416,38.05l-22.917,1.85l-37.5,26.337l60.8,-80.283l45.833,-6.996Z" style="fill:#dda15e;fill-rule:nonzero;"/><path d="M294.421,478.521l-38.171,4.066l-31.25,54.275l43.75,-29.17l-56.25,58.504l-45.833,85.908l16.666,-56.675l-39.125,46.021l94.405,-174.679l27.487,-4.958l28.321,16.708Z" style="fill:#dda15e;fill-rule:nonzero;"/><path d="M873.083,655.875c2.859,-2.104 8.788,-8.846 9.08,-2.092c0.325,7.467 -9.238,5.771 -13.034,8.667c1.4,2.15 4.117,1.804 5.846,3.625c-4.025,6.542 -18.171,1.629 -22.775,-1.9c-2.712,14.513 15.988,6.05 19.679,12.304c-3.254,3.071 -9.225,1.908 -13.491,2.134c-1.021,5.62 10.587,5.787 13.97,5.379c7.171,-0.867 11.946,-4.221 16.438,-9.338c-0.521,-0.4 -1.088,-0.766 -1.533,-1.221c-4.442,-4.512 -4.542,-10.258 3.258,-7.962c-4.092,-2.288 -9.392,-4.929 -8.467,-10.304c3.842,-0.2 7.8,-0.163 11.679,-0.067c-6.508,-2.854 -20.933,-6.246 -23.625,-13.817c-0.145,-0.412 -0.241,-0.983 -0.304,-1.6c-4.75,1.271 -9.946,1.75 -11.941,1.634c2.033,3.312 7.125,3.037 10.754,3.104c-0.504,9.087 -20.925,4.679 -25.225,1.529c4.825,11.938 18.621,18.054 29.691,9.925Zm-1.795,-23.446l0.241,-0.012l0.196,-0.138l-0.437,0.15Zm150.462,-184.812c1.413,-1.13 4.317,-5.025 7.275,-7.534c-7.279,-1.795 -14.233,-4.871 -19.383,-9.396c-4.788,-0.12 -9.592,-0.27 -13.588,1.092c2.9,6.417 11.796,0.796 16.459,2.996c-3.775,11.137 -20.859,3.412 -27.571,0.275c-3.975,20.283 25.812,21.338 36.808,12.567Zm-30.079,39.158c12.137,3.738 25.521,13.104 38.2,13.8c1.912,0.104 3.742,0.121 5.525,0.087c4.767,-1.954 9.229,-4.995 13.329,-8.504c1.896,1.854 2.125,4.038 1.333,6.35c12.938,-4.071 21.313,-13.904 27.1,-30.1c-3.687,8.588 -16.183,8.829 -23.058,4.217c14.108,-6.775 26.625,-5.838 30.296,-24.6c-14.767,1.225 -30.046,20.275 -45.538,10.917c-2.704,6.4 -9.366,12.22 -14.687,14.062c-10.896,3.767 -23.038,0.213 -32.029,-5.392c-2.617,11.509 14.346,15.38 21.441,19.296c-3.341,11.267 -21.704,-3.612 -25.666,-8.045c0.096,2.741 1.533,5.412 3.754,7.912Zm4.762,39.413c2.359,6.937 6.692,13.62 14.292,15.599c4.521,1.18 13.779,0.638 18.238,-0.624c5.345,-1.509 9.104,-7.317 14.812,-6.475c2.679,17.462 -20.854,22.954 -33.183,20.445c-1.75,-0.354 -5.092,-1.4 -7.413,-1.525c2.434,1.354 4.8,2.867 6.779,3.942c11.521,6.263 23.009,11.017 36.317,7.4c16.283,-4.425 24.971,-14.587 33.292,-26.208c-5.359,4.916 -31.159,19.316 -30.517,4.496c18.696,1.041 31.267,-18.134 31.704,-34.809c-17.879,13.467 -39.525,24.675 -62.583,17.934c-4.563,-1.334 -9.367,-3.467 -13.963,-6.221c-3.391,-0.338 -6.716,-0.95 -9.85,-1.921c0.571,2.683 1.192,5.358 2.075,7.967Zm60.071,57.775c3.375,-1.155 5.884,-2.059 6.609,-2.434c-11.513,-4.033 -46.696,2.675 -64.48,-5.129c5.309,11.4 13.58,16.375 27.513,15.608c10.287,-0.562 21.329,-10.358 30.4,-9.45c0.017,0.475 -0.021,0.938 -0.042,1.405Zm-55.771,28.441c0.488,0.042 0.946,0.088 1.446,0.129c29.246,2.342 50.329,-1.079 72.163,-21.891c-4.417,3.804 -18.159,10.171 -30.504,12.371c-3.367,2.266 -7.013,3.987 -10.438,4.987c-14.296,4.179 -27.717,-2.771 -38.804,-11.121c0.146,5.433 2.379,11.283 6.137,15.525Zm42.58,49.025c6.179,-0.496 10.645,-1.062 15.604,-4.146c-7.804,-0.666 -14.721,-4.495 -13.688,-13.929c13.125,-3.137 37.275,-4.437 34.45,-24.221c-10.212,4.259 -18.416,12.459 -29.158,15.946c-7.021,10.65 -36.467,4.142 -44.988,7.125c2.013,1.034 25.525,8.513 25.58,8.2c-2.08,11.917 -27.417,1.863 -32.538,-2.55c13.533,12.904 26.608,15.025 44.738,13.575Zm-3.275,-206.954c9.354,-1.646 22.937,-1.692 27.858,-7.95c9.967,-12.679 -7.083,-6.621 -12.942,-5.429c-5.279,1.075 -11.837,1.229 -18.541,0.362c0.05,3.592 -3.025,9.459 -5.809,13.221c2.592,-2.391 5.742,-4.242 9.2,-3.783c0.284,1.171 0.346,2.375 0.234,3.579Zm-39.967,-36.296c0.796,2.925 2.137,4.6 3.825,5.438c-0.929,-1.704 -1.65,-3.534 -2.121,-5.492c-0.575,0.013 -1.146,0.021 -1.704,0.054Zm35.85,-34.746c-4.65,-0.808 -17.2,-7.083 -27.929,-15.041c-0.142,6.337 -14.975,6.171 -20.396,-0.329c2.542,5.279 4.429,10.737 9.629,13.716c5.208,2.979 23.471,-2.8 25.829,2.146c5.175,10.867 -18.533,4.854 -21.316,3.896c-2.417,11.737 24.116,2.837 20.675,10.483c-5.938,13.171 -33.5,-3.396 -35.959,-12.696c-0.483,1.65 -0.225,5.646 -0.541,8.838c2.591,4.979 5.57,10.05 10.437,12.721c1.442,0.791 3.179,1.358 4.992,1.816l0.091,-0.862c3.055,-0.45 5.763,0.291 8.334,1.554c1.025,-0.096 2.058,-0.183 2.983,-0.433c4.463,-1.196 10.021,-9.1 13.825,-7.209c6.546,3.254 -3.45,12.267 -6.571,13.942l-0.183,0.079c1.417,0.854 2.883,1.6 4.421,2.15c3.033,-1.162 5.725,-1.75 7.6,-0.779c-0.15,0.85 -0.371,1.571 -0.579,2.317c7.666,1.1 17.841,1.3 23.479,-0.167c12.254,-3.192 19.25,-13.971 23.046,-25.163c1.429,-4.204 2.429,-8.52 3.35,-12.845c-14.063,4.35 -30.496,4.437 -45.217,1.866Zm-37.138,-22.875c-2.783,-0.104 -5.858,-1.437 -8.216,-3.037c-0.363,8.317 7.846,6.958 13.137,7.504c-1.758,-1.458 -3.408,-2.954 -4.921,-4.467Zm185.08,-27.012c-6.88,7.137 -22.471,10.996 -31.05,3.917c11.737,11.42 23.133,19.141 40.387,16.504c0.796,-0.125 1.542,-0.279 2.296,-0.43c-2.921,-3.783 -5.171,-8.695 -6.371,-14.999c6.154,-4.275 13.221,5.883 18.758,10.675c1.709,-0.909 3.305,-1.909 4.825,-2.988c-1.77,-0.842 -3.487,-1.842 -5.091,-3.208c-4.829,-4.125 -10.2,-17.267 -0.238,-13.725c3.45,1.229 7.484,7.975 11.429,10.141c0.43,0.238 0.842,0.375 1.267,0.584c4.154,-4.013 8.108,-8.513 12.817,-13.054c2.812,7.075 2.504,12.404 0.221,16.549c0.57,0.075 1.116,0.159 1.708,0.23c8.067,0.971 16.146,0.725 21.508,-6.146c2.492,-3.192 4.017,-7.108 5.154,-11.292c-2.754,1.796 -6.066,2.675 -9.795,2.092c-0.617,-4.9 0.591,-9.346 2.137,-13.783c-3.137,5.47 -8.721,11.949 -12.275,10.187c-4.912,-2.433 0.967,-12.925 2.696,-14.729c-6.767,4.829 -17.825,10.512 -25.671,6.566c-5.917,-2.979 -10.017,-10.599 -9.033,-17.083c4.579,-0.621 28.7,11.388 28.841,1.446c-14.316,-0.383 -26.125,-7.704 -28.862,-22.538c3.842,0.796 6.575,4.671 10.058,6.817c5.767,3.558 12.75,5.604 19.5,6.204c10.75,0.959 19.517,-2.437 25.963,-10.941c2.604,-3.434 3.541,-8.809 5.137,-13.563c-0.033,-0.5 0,-1.008 0.109,-1.504c-7.188,9.158 -18.609,14.846 -30.25,15.067c4.354,-5.275 8.941,-10.354 13.745,-15.221c-8.591,9.467 -24.966,12.467 -36.304,6.562c2.067,-1.325 4.442,-2.154 6.884,-2.441c-7.875,-0.975 -15.713,-6 -20.259,-12.338c-4.779,7.471 -17.875,14.3 -22.637,18.017c12.191,2.929 17.525,-6.675 26.691,-11.121c12.48,23.538 -40.454,28.096 -49.82,32.237c8.4,16.992 33.783,11.671 47.245,5.08c9.721,16.208 -53.475,24.558 -66.42,5.333c5.775,16.004 27.662,27.179 44.7,26.896Zm52.441,16.141c-2.833,-0.137 -5.721,-0.191 -8.6,-0.333c-2.696,1.934 -5.975,3.484 -9.558,4.788c7.225,2.096 15.933,2.504 18.158,-4.455Zm-35.216,9.146c-6.788,1.592 -13.138,3.084 -17.384,5.275c6.317,10.534 23.534,0.413 31.334,7.755c-0.292,0.416 -0.634,0.8 -0.975,1.187c7.858,-8.096 25.695,-7.558 27.816,-21.317c-12.954,11.309 -29.496,14.709 -40.791,7.1Zm-36.459,53.592c3.079,2.104 6.234,3.563 9.429,4.529c-4.17,-4.471 -6.837,-10.004 -6.7,-16.383c7.088,-3.975 14.117,8.812 19.496,12.237c2.079,1.321 4.75,2.538 7.704,3.5c1.617,-0.55 3.238,-1.187 4.85,-1.95c1.517,-0.712 3.459,-2.295 5.634,-4.221c-1.659,-0.812 -3.117,-1.87 -4.229,-3.266c-7.05,-8.821 2.391,-7.821 8.304,-5.721c1.525,0.546 2.946,1.042 4.316,1.504c5.788,-4.854 11.792,-8.625 15.921,-5.371c2.625,2.067 3.429,4.4 2.988,6.834c1.504,-0.417 3.058,-0.929 4.754,-1.663c6.908,-2.966 13.221,-7.271 18.675,-12.166c6.117,-5.492 9.917,-11.138 12.942,-18.021c-1.95,2.858 -4.292,5.196 -7.013,5.454c-6.412,0.608 -5.592,-5.654 -4.017,-10.746c2.834,-9.163 11.375,-19.525 10.638,-28.45c-1.633,10.138 -9.479,20.75 -17.442,26.888c-7.537,5.816 -29.354,16.854 -37.946,8.904l0.575,-0.646c-7.6,7.708 -25.541,9.5 -35.612,8.425c6.004,3.433 14.604,5.7 17.542,11.737c-17.592,12.084 -38.438,2.063 -54.888,-13.175c5.25,12.379 12.329,23.75 24.079,31.767Zm8.388,46.267c-0.529,-1.417 -0.963,-3 -1.254,-4.805c-0.463,-2.875 -0.184,-4.712 0.566,-5.858c-6.954,-2.1 -13.429,-5.729 -20.341,-11.596c5.575,8.709 12.762,16.521 21.029,22.259Zm10.116,76.37c9.434,1.213 26.75,7.613 27.671,-5.208c-8.662,1.846 -28.341,8.767 -32.766,-4.508c5.045,-2.933 12.683,-1.138 18.466,-1.354c8.921,-0.329 18.967,-1.967 27.346,-5.263c9.463,-3.721 16.983,-10.667 20.417,-20.137c-6.663,1.658 -14.688,9.666 -22.309,5.566c6.384,-2.733 16.73,-4.366 20.93,-10.483c1.258,-1.825 2.058,-4.142 2.633,-6.675c-1.413,0.196 -2.971,0.15 -4.713,-0.196c-3.55,-0.704 -5.404,-2.187 -6.162,-4.083c-12.613,7.875 -37.975,10.779 -45.425,10.329c5.062,8.238 17.7,7.554 26.721,7.717c-1.25,22.575 -51.979,11.629 -62.663,3.804c5.813,14.371 16.879,25.3 29.854,30.491Zm-21.262,101.576c4.046,0.233 8.596,0.72 12.983,0.995c-7.737,-3.295 -14.387,-8.275 -18.008,-15.704c-0.658,6.092 1.812,10.517 5.025,14.709Zm13.442,-86.692l-0.155,-0.109l-0.008,0.063l0.163,0.046Zm52.529,0.208c-1.125,0.138 -2.242,0.238 -3.354,0.329c0.733,0.279 1.458,0.567 2.187,0.867c0.383,-0.4 0.796,-0.779 1.167,-1.196Zm-16.075,24.017c2.333,-1.125 4.558,-2.338 6.566,-3.688c5.109,-3.433 7.7,-8.133 10.58,-12.662l-0.788,0.6c-0.45,0.346 -0.867,0.725 -1.354,1.025c-7.275,5.225 -17.883,8.937 -23.933,9.796c-8.321,1.179 -22.313,-1.567 -28.038,-9.325c2.604,15.641 22.825,12.22 36.967,14.254Zm-10.975,23.067c5.191,-3.555 10.029,-7.746 13.608,-12.263c-3.05,0.613 -6.325,0.792 -9.625,0.808c-4.325,2.284 -8.833,4.092 -13.471,5.15c1.596,2.988 5.142,5.009 9.488,6.305Zm22.462,2.008c6.442,-6.083 11.475,-12.908 11.509,-22.263c-6.855,7.067 -11.342,16.905 -19.988,22.334c3.242,0.141 6.221,0.087 8.479,-0.071Zm17.167,-131.817l0.087,0.188c0.334,-0.421 0.667,-0.83 0.992,-1.217l-1.079,1.029Zm-45.488,0.338c7.43,1.121 15.28,0.337 23.321,-2.796c0.813,-1.075 1.538,-2.196 2.029,-3.404c-6.229,0.733 -16.1,4.679 -25.35,6.2Zm11.913,-29.246c-4.25,2.183 -14.8,0.296 -18.6,-0.838c4.15,3.929 9.167,7.567 11,12.484c-4.254,0.262 -8.171,0.341 -11.867,0.2c1.259,0.554 2.425,1.045 3.379,1.35c9.792,3.112 20.28,1.871 29.855,-1.509c8.67,-3.058 15.491,-7.483 21.525,-13.171c-1.613,-0.208 -3.117,-1 -4.446,-2.579c-2.904,-3.462 2.712,-10.975 8.025,-17.346c-9.85,9.125 -23.425,12.275 -37.217,12.463c3.188,2.617 2.592,6.763 -1.654,8.946Zm76.912,-266.613c-0.095,-0.858 -0.166,-1.65 -0.212,-2.341c0.017,0.475 -0.013,1.262 -0.092,2.254l0.304,0.087Zm-512.683,513.884c3.8,2.833 6.925,3.254 11.492,3.62c11.771,0.946 20.258,-0.433 29.046,-8.812c-3.325,2.863 -19.775,9.396 -21.125,1.654c0.033,0.204 15.3,-4.65 16.608,-5.321c-6.517,-2.283 -31.9,3.996 -30.108,-9.475c0.766,-5.766 5.787,-1.766 8.708,-0.179c4.637,2.521 9.262,4.433 14.621,2.979c6.554,-1.779 10.054,-5.87 13.4,-10.55c-2.159,1.979 -12.542,7.775 -12.284,1.809c7.525,0.42 12.588,-7.3 12.763,-14.013c-7.196,5.425 -15.913,9.934 -25.192,7.221c-6.946,-2.033 -15.325,-8.558 -15.029,-16.521c5.888,-0.587 13.058,5.771 19.738,6.138c10.129,0.554 15.666,-3.521 19.037,-12.946c-1.487,3.454 -6.517,3.554 -9.283,1.696c5.679,-2.725 10.721,-2.35 12.196,-9.904c-6.475,0.537 -13.188,9.62 -19.996,3.141c3.396,-1.317 10.946,-0.687 13.35,-3.746c4.016,-5.104 -2.85,-2.662 -5.209,-2.183c-8,1.629 -23.279,-1.933 -21.541,-13.275c3.708,-0.546 6.146,3.225 9.616,4.204c2.896,0.821 8.905,1.171 11.842,0.404c4.933,-1.283 7.746,-5.621 9.275,-10.129c0.575,-1.687 0.979,-3.425 1.35,-5.166c-5.662,1.75 -12.275,1.783 -18.2,0.75c-4.067,-0.709 -23.133,-11.775 -17.096,-17.671c5.692,4.866 12.429,8.504 19.967,6.312c5.546,-1.612 19.271,-7.933 19.512,-14.946c-2.575,2.875 -14.495,12.538 -16.662,5.225c4.608,-2.545 15.621,-5.058 13.917,-12.529c-5.838,3.638 -13.717,5.946 -20.792,3.496c-4.892,-1.692 -11.554,-8.558 -10.15,-14.35c2.246,-0.296 4.287,0.904 5.971,2.454c-2.179,-2.946 -4.679,-7.912 -3.5,-9.829c2.396,-3.883 7.525,3.867 9.25,5.246c7.141,5.692 26.479,5.008 23.896,-8.159c-4.359,2.034 -15.45,7.051 -17.9,-0.179c3.029,-1.429 8.804,2.217 10.687,-1.946c-7.967,-2.716 -20.9,3.826 -23.237,-9.32c4.816,-2.488 17.816,10.791 20.629,0.491c-4.246,-0.27 -8.992,0.679 -12.938,-1.433c-2.029,-1.088 -8.516,-6.938 -4.271,-9.05c2.471,-1.229 6.08,3.904 8.975,4.683c3.296,0.884 7.775,0.225 10.65,-1.35c3.159,-1.737 5.092,-5.025 6.78,-8.262c-0.209,-2.071 -0.042,-4.663 -0.355,-5.733c-1.6,6.037 -19.495,16.791 -23.345,8.241c-2.238,-4.962 14.991,0.813 13.42,-6.808c-1.804,0.625 -17.2,4.529 -13.837,-2.529c1.529,-3.209 13.387,0.541 16.767,-1.392c3.375,-1.933 4.604,-5.479 6.254,-8.904c-3.625,4.35 -13.775,4.346 -13.254,-0.163c0.479,-4.154 11.666,1.084 11.325,-6.683c-3.2,2.171 -8.455,3.629 -9.692,-1.504c3.737,-1.463 9.083,-0.104 12.375,-2.925c1.737,-1.496 2.229,-3.213 2.392,-5.071l-0.255,-0.071c-0.166,-2.904 0.175,-5.854 -1,-8.458c-0.241,1.579 -1.35,6.787 -3.662,4.542c-1.088,-1.059 1.1,-6.009 0.971,-7.65c-1.204,3.637 -4.492,7.445 -8.775,5.437c0.496,-3.646 6.041,-4.487 6.079,-8c-2.242,2.204 -4.85,4.562 -8.142,2.817c1.838,-5.6 13.154,-6.367 16.788,-12.046c2.441,-3.817 3.312,-11.333 3.362,-16.338c1.054,9.371 1.738,16.234 8.821,23.196c1.538,1.513 6.521,3.834 6.742,5.817c0.475,4.275 -6.159,2.775 -8.259,1.212c1.346,1.588 3.542,3.375 4.025,5.425c-2.141,0.075 -3.712,-1.445 -5.508,-2.5c2.267,8.042 6.038,19.063 14.267,10.4c2.825,5.134 -4.95,7.43 -8.625,7.292c0.841,2.863 5.141,2.829 7.625,2.079c1.533,6.709 -5.988,2.984 -8.567,1.563c3.013,5.566 7.363,9.862 14.342,5.104c2.208,-1.509 6.329,-7.933 8.833,-3.15c2.3,4.387 -5.05,6.929 -7.237,8.2c2.591,0.242 5.087,0.075 6.758,2.175c-1.275,1.787 -3.638,2.387 -5.579,3.146c4.254,-0.059 10.5,-0.338 4.737,4.116c-4.812,3.721 -12.366,2.163 -17.283,0.054c0.842,3.821 8.4,6.138 11.687,7.717c-3.145,1.246 -7.52,0.859 -11.337,-0.417c1.287,1.951 2.758,3.725 4.762,5.084c6.934,4.679 13.963,1.321 20.2,-2.642c5.034,5.084 -2.937,8.079 -6.762,8.854c-6.821,1.384 -10.492,0.53 -15.433,-4.104c1.55,4.234 4.933,7.934 9.204,9.413c-6.35,2.062 -10.871,-1.246 -13.45,-7.196c0.35,5.341 3.083,8.654 7.608,11.237c-6.379,0.134 -10.967,-1.733 -15.275,-6.212c1.579,6.2 2.721,12.362 9.75,14.487c6.754,2.038 11.442,-1.596 15.45,-6.745c1.138,-1.463 5.629,-8.813 5.817,-2.317c0.116,3.817 -7.446,7.608 -9.829,9.462c4.908,1.184 7.054,-2.687 10.745,-4.475c5.025,9.475 -16.283,11.313 -20.054,12.975c3.379,6.842 13.596,4.7 19.017,2.046c3.917,6.525 -21.525,9.888 -26.738,2.15c2.325,6.442 11.138,10.942 17.996,10.825c-2.771,2.875 -9.046,4.425 -12.5,1.575c4.725,4.6 9.313,7.709 16.259,6.646c8.016,-1.225 10.916,-5.992 15.979,-10.871c4.879,12.284 -13.396,11.65 -19.804,14.954c2.545,4.238 9.475,0.167 12.612,3.121c-2.575,3.721 -10.596,4.584 -14.95,4.121c2.417,1.379 5.879,2.292 7.063,4.725c-7.08,4.867 -15.475,0.829 -22.096,-5.304c2.116,4.983 4.962,9.558 9.696,12.787c4.458,3.046 9.262,3.013 14,0.779c2.725,-1.287 8.82,-9.424 12.054,-6.874c5.462,4.304 -8.521,11.5 -11.538,12.054c4.371,0.066 5.05,3.22 2.475,4.546c-1.708,0.879 -5.954,0.12 -7.487,-0.338c1.671,1.583 3.691,3.046 4.429,5.029c-7.954,0.488 -13.083,-0.487 -19.025,-5.529c6.4,9.996 18.021,17.233 30.292,9.717c1.737,-1.067 7.312,-10.963 8.52,-5.15c0.68,3.266 -4.416,6.712 -7.987,8.391c0.662,-0.066 1.142,0.13 1.546,0.446c1.191,-0.279 2.329,-0.633 3.204,-0.975c1.133,2.033 0.608,3.713 -0.858,5.096l0.725,1.062c7.333,8.8 14.92,14.542 26.7,15.967c5.208,0.629 23.091,0.375 21.52,-8.283c-6.57,-0.35 -15.77,1.437 -20.779,-3.292c5.684,-9.629 34.484,3.4 30.309,-18.95c-7.092,5.433 -28.88,13.004 -35.08,2.929c2.659,-2.804 6.846,-2.275 9.005,-5.587c-5.846,-4.458 -20.575,-1.846 -20.075,-13.346c0.45,-10.404 9.579,-0.021 13.983,3.217c17.058,12.529 38.3,3.1 45.733,-15.279c-6.625,4.85 -38.075,11.637 -38.85,-2.359c5.592,-0.104 13.425,0.321 16.563,-4.783c-6.888,0.416 -38.5,-3.784 -31.709,-15.959c2.88,1.126 7.534,2.376 11.03,2.276c-4.338,-1.126 -17.338,-8.017 -16.013,-14.384c1.863,-8.954 10.446,6.288 13.125,7.929c18.9,11.575 36.8,0.434 46.654,-14.966c-9.15,7.766 -17.046,9.271 -29.3,8.516c1.138,-3.05 4.246,-5.304 6.817,-7.741c-2.354,0.7 -8.896,1.871 -11.529,0.516c-3.967,-2.041 -2.921,-6.9 3.812,-7c-4.646,-0.85 -26.179,-11.941 -17.771,-18.566c4.984,-3.925 14.371,8.608 18.567,10.587c7.3,3.442 14.7,3.492 21.567,-1.2c7.283,-4.971 11.675,-12.021 14.929,-19.696c-10.2,9.45 -23.125,15.663 -34.029,8.167c1.821,-3.742 7.15,-5.146 10.871,-7.275c-6.705,0.717 -19.055,-0.613 -23.025,-6.346c4.837,-4.55 15.508,1.721 19.425,-4.808c-9.867,-5.088 -38.013,-4.108 -30.496,-23.029c7.791,7.512 12.262,14.854 24.608,16.741c10.696,1.638 17.767,-3.15 25.042,-10.233c-5.321,4.392 -14.988,2 -19.25,-2.425c10.562,0.175 24.133,-6.754 27.716,-16.679c-8.029,11.921 -47.208,6.742 -41.183,-3.304c8.346,4.083 24.083,7.383 29.292,-3.155c-5.809,-2.562 -38.625,-5.391 -30.888,-19.987c5.684,2.758 8.992,8.717 16.55,6.896c-3.671,-2.859 -15.316,-8.7 -15.146,-14.575c0.3,-10.004 7.213,1.321 8.967,3.566c6.175,7.934 13.396,13.53 23.792,10.388c10.829,-3.267 12.587,-12.763 15.025,-22.313c-6.646,6.9 -13.704,9.776 -23.534,9.571c6.975,-3.983 11.184,-9.083 11.721,-17.308c-3.975,9.163 -10.933,14.258 -20.716,11.083c6.583,-2.279 11.791,-7.975 14.17,-14.491c-7.608,7.133 -13.258,8.441 -23.762,6.316c-5.892,-1.191 -18.171,-5.808 -10.417,-13.641c9.604,6.108 20.434,11.279 31.113,4.066c3.087,-2.083 5.35,-4.825 7.333,-7.82c-5.879,1.962 -12.617,2.558 -17.462,0.637c5.066,-2.429 16.708,-6 18,-11.883c-7.567,3.241 -19.209,5.65 -26.617,-0.084c-8.875,-6.858 0.746,-6.429 7.296,-6.341c-2.992,-1.171 -6.634,-2.096 -8.592,-4.846c2.571,-3.238 6.417,-2.979 10.408,-3.354c-3.37,-1.95 -14.687,-5.867 -11.15,-12.621c3.863,-7.371 10.205,2.525 13.605,4.842c10.75,7.333 17.45,0.72 22.091,-7.859c-3.971,2.188 -15.558,7.929 -13.196,-2.408c3.83,1.158 10.45,1.204 11.746,-3.2c-5.658,0.212 -17.633,-3.321 -13.279,-11.225c12.675,13.337 18.479,-3.642 21.967,-16.025c-2.759,1.629 -5.188,3.962 -8.484,3.854c0.746,-3.158 4.13,-5.912 6.2,-8.354c-3.233,2.404 -13.454,4.712 -12.72,-1.875c0.337,-3.046 8.02,-6.629 10.387,-8.954c10.904,-10.725 11.963,-21.292 13.583,-35.729c0.075,7.708 1.421,19.287 5.18,25.162c5.595,8.75 23.025,9.929 25.854,18.558c-5.067,2.688 -9.088,-0.945 -12.538,-4.341c0.059,5.408 8.6,6.704 9.367,12.325c-6.6,3.091 -11.663,-2.775 -13.517,-8.375c-0.2,2.529 3.167,10.15 1.492,11.779c-3.558,3.458 -5.267,-4.563 -5.638,-6.992c-1.812,4.009 -1.283,8.554 -1.545,13.025l-0.388,0.109c0.25,2.862 1.008,5.508 3.683,7.808c1.85,1.587 4.13,2.308 6.546,2.704c-3.054,-5.05 -3.562,-9.925 0.475,-13.867c14.146,12.096 30.879,21.13 49.609,15.684c13.77,-4.004 47.862,-19.704 48.462,-37.129c-6.392,7.15 -36.004,31.141 -41.396,12.979c11.45,-6.317 38.809,-12.563 34.579,-31.125c-14.495,9.037 -34.079,14.771 -51.654,8.695c-12.15,-4.204 -28.7,-21.262 -25.216,-35.654c5.587,-0.741 10.662,2.246 14.841,6.105c-5.412,-7.325 -11.629,-19.663 -8.696,-24.417c5.95,-9.654 18.692,9.6 22.975,13.021c17.738,14.145 65.78,12.45 59.367,-20.267c-10.829,5.062 -38.379,17.517 -44.467,-0.442c7.517,-3.55 21.867,5.513 26.542,-4.833c-19.783,-6.746 -51.908,9.5 -57.717,-23.154c11.963,-6.179 44.259,26.808 51.242,1.221c-10.554,-0.675 -22.337,1.691 -32.146,-3.559c-5.037,-2.695 -21.154,-17.237 -10.604,-22.483c6.138,-3.054 15.1,9.696 22.296,11.629c8.187,2.196 19.317,0.571 26.454,-3.35c7.85,-4.308 12.654,-12.483 16.838,-20.521c-0.517,-5.141 -0.1,-11.583 -0.88,-14.246c-3.966,15.001 -48.42,41.717 -57.987,20.471c-5.558,-12.329 37.242,2.025 33.337,-16.908c-4.487,1.55 -42.725,11.246 -34.375,-6.279c3.8,-7.975 33.255,1.346 41.655,-3.463c8.387,-4.804 11.429,-13.608 15.533,-22.125c-9.008,10.809 -34.221,10.8 -32.925,-0.4c1.196,-10.312 28.975,2.692 28.129,-16.6c-7.942,5.392 -20.996,9.017 -24.075,-3.733c9.292,-3.633 22.567,-0.254 30.742,-7.271c4.321,-3.708 5.537,-7.983 5.941,-12.596l-0.629,-0.179c-0.416,-7.204 0.434,-14.537 -2.483,-21.004c-0.604,3.921 -3.358,16.858 -9.096,11.279c-2.704,-2.629 2.725,-14.921 2.404,-19c-2.987,9.034 -11.154,18.496 -21.8,13.509c1.238,-9.063 15.017,-11.155 15.104,-19.884c-5.558,5.484 -12.041,11.342 -20.212,7.009c4.558,-13.921 32.671,-15.817 41.696,-29.93c6.062,-9.479 8.229,-28.146 8.346,-40.579c2.62,23.283 4.325,40.321 21.916,57.617c3.817,3.754 16.2,9.525 16.75,14.446c1.179,10.621 -15.304,6.9 -20.516,3.02c3.341,3.938 8.795,8.38 10,13.476c-5.321,0.174 -9.234,-3.592 -13.684,-6.213c5.625,19.971 14.992,47.354 35.429,25.842c7.025,12.746 -12.291,18.446 -21.412,18.108c2.083,7.104 12.767,7.025 18.942,5.154c3.804,16.675 -14.884,7.417 -21.284,3.888c7.484,13.837 18.292,24.5 35.625,12.675c5.484,-3.742 15.717,-19.705 21.946,-7.817c5.704,10.9 -12.55,17.212 -17.983,20.363c6.441,0.604 12.637,0.191 16.791,5.408c-3.162,4.437 -9.037,5.929 -13.862,7.816c10.567,-0.141 26.083,-0.837 11.771,10.23c-11.959,9.241 -30.725,5.366 -42.934,0.133c2.084,9.483 20.863,15.25 29.03,19.162c-7.813,3.101 -18.68,2.138 -28.167,-1.029c3.204,4.838 6.854,9.259 11.829,12.617c17.229,11.633 34.688,3.292 50.183,-6.558c12.505,12.629 -7.3,20.075 -16.8,22c-16.941,3.433 -26.058,1.316 -38.329,-10.192c3.846,10.513 12.242,19.7 22.863,23.375c-15.784,5.121 -27.009,-3.096 -33.417,-17.871c0.867,13.267 7.658,21.492 18.904,27.917c-15.85,0.325 -27.241,-4.313 -37.954,-15.438c3.929,15.4 6.767,30.713 24.233,35.988c16.767,5.058 28.413,-3.963 38.371,-16.754c2.825,-3.625 13.979,-21.888 14.459,-5.759c0.054,1.838 -0.621,3.667 -1.759,5.463c12.467,2.608 25.579,2.066 37.792,-1.563c3.083,-0.916 6.167,-2.058 8.692,-4.045c2.325,-1.834 4.058,-4.292 5.762,-6.713c3.717,-5.287 7.433,-10.575 11.15,-15.863c0.079,-1.575 0.238,-3.141 0.475,-4.7c-1.021,4.438 -4.379,8.309 -8.679,9.838c1.154,-5.425 2.446,-10.821 3.867,-16.183c-2.9,3.754 -5.859,7.558 -9.7,10.337c-3.846,2.779 -8.771,4.434 -13.384,3.329c1.738,-4.141 4.154,-7.987 7.088,-11.387c-3.821,3.729 -7.946,6.904 -13.967,5.446c2.833,-7.863 19.538,-14.75 26.171,-19.725c5.429,-4.075 10.587,-9.142 13.083,-15.588l0.196,-0.554c-1.304,-1.942 -0.442,-8.529 0.554,-14.546c-3.066,7.167 -9.983,12.279 -18.541,10.825c6.045,-5.496 12.462,-9.071 11.308,-18.65c-4.313,5.813 -9.846,13.334 -18.433,11.546c-13.405,-2.792 1.05,-4.588 4.875,-5.65c10.579,-2.937 17.004,-17.05 21.112,-26.367c5.046,-11.437 8.483,-30.375 6.363,-40.691c3.033,14.291 5.754,28.55 12.35,41.729c3.558,7.104 6.32,9.658 13.645,12.2c4.271,1.479 16.188,4.583 12.73,11.517c-3.109,6.233 -15.621,2.208 -18.959,-1.276c0.275,2.646 9.146,14.23 0.934,12.063c-6.08,-1.596 -4.596,-12.679 -11.871,-14.404c-1.129,8.625 7.408,16.579 9.241,24.525c-6.683,1.592 -10.416,-4.675 -12.416,-11.446c-0.096,0.388 -0.192,0.771 -0.284,1.142c-0.337,1.345 -0.62,2.537 -0.612,3.354c0.071,5.871 3.862,13.175 7.254,17.779c5.358,7.271 11.225,8.104 19.063,9.421c-0.913,3.8 -4.046,2.771 -6.259,5.383c3.067,1.959 6.579,4.15 9.65,6.104c2.821,1.796 6.046,4.909 4.521,7.884c-3.579,-0.742 -6.954,-2.467 -9.646,-4.942c-1.733,-0.358 -1.166,2.875 -0.458,4.496c0.704,1.621 1.7,3.733 0.375,4.9c-3.363,-2.113 -6.275,-4.929 -8.508,-8.209c0.629,1.696 -0.359,4.001 -2.138,4.738c-0.775,0.317 -1.6,0.379 -2.417,0.263c1.534,3.154 3.888,5.916 6.813,7.858c2.979,1.979 6.437,3.108 9.892,4.05c4.27,1.162 8.695,2.083 13.112,1.675c4.408,-0.413 8.85,-2.313 11.488,-5.871c1.07,-1.442 1.82,-3.117 3.012,-4.462c1.192,-1.342 3.038,-2.342 4.758,-1.826c2.405,0.721 3.113,4.055 1.984,6.296c-1.125,2.246 -3.417,3.617 -5.596,4.863c-2.179,1.246 -4.475,2.6 -5.633,4.829c2.07,-1.6 6.654,0.396 6.566,3.017c-0.071,2.091 -1.962,3.746 -4.033,4.079c1.45,0.033 2.9,0.166 4.254,0.666c1.838,0.684 3.5,2.205 3.771,4.146c0.271,1.954 -0.929,3.884 -2.538,5.017c-1.616,1.133 -3.587,1.621 -5.516,2.025c-7.288,1.533 -14.75,2.246 -22.2,2.121c3.275,0.737 7.016,3.992 9.104,6.621c-1.888,2.12 -5.396,2.55 -7.738,0.95c1.709,1.904 3.4,4.979 1.509,6.696c-1.196,1.087 -3.067,0.75 -4.609,0.266c-4.437,-1.391 -8.65,-3.479 -12.475,-6.125c5.334,11.913 16.58,22.858 28.38,24.984c8.941,1.608 13.954,-1.742 19.908,-5.555l-0,3.692c-0.621,0.179 -1.25,0.329 -1.892,0.4c0.696,-0.021 1.313,0.042 1.892,0.138l-0,6.408c-3.483,1.612 -9.554,0.729 -12.788,0.671c5.375,2.891 3.721,7.304 -0.933,9.162c-8.225,3.283 -13.246,-6.183 -18.683,-9.8c1.966,2.225 8.733,15.163 3.816,16.683c-3.525,1.084 -9.562,-9.595 -11.958,-11.624c0.596,2.166 1.708,9.029 -0.412,11.016c3.975,8.067 8.991,15.333 18.162,17.704c9.192,2.38 16.338,-2.121 22.796,-7.837l-0,10.617c-7.371,4.312 -14.708,7.679 -16.746,9.158c3.738,5.079 10.425,4.8 16.746,2.933l-0,4.467c-5.608,1.912 -12.092,2.017 -18.713,2.175c-2.02,9.162 9.95,8.808 18.713,8.254l-0,8.579c-2.563,0.838 -5.4,1.175 -7.838,1.221c-8.712,0.175 -14.341,-4.804 -21.062,-9.912c1.221,3.516 6.242,15.516 -0.45,16.499c-5.592,0.821 -17.354,-14.841 -17.804,-20.204c-0.071,6.946 -1.463,9.313 -3.509,9.167c5.78,11.329 14.48,20.925 27.646,17.583c4.875,-1.237 13.179,-15.575 15.129,-5.137c1.455,7.771 -10.445,8.992 -11.566,15.858c9.646,3.383 14.471,-1.121 19.454,-6.458l-0,21.55c-9.142,1.054 -18.667,-0.446 -26.746,-4.533c2.342,3.462 5.796,6.512 9.55,8.674c2.346,1.355 12.692,3.117 12.983,6.321c0.555,6.038 -14.525,2.988 -17.479,2.192c-12.662,-3.421 -24.583,-11.975 -32.066,-22.979c5.1,17.941 16.841,35.8 31.27,46.179c7.738,5.571 15.113,6.529 22.488,4.383l-0,8.579c-1.988,0.467 -3.763,0.971 -5.133,1.596c1.458,1.296 3.237,1.813 5.133,2.021l-0,9.721c-10.479,0.904 -23.629,-0.304 -29.804,-7.875c4.116,9.675 15.179,11.237 21.079,18.488c-8.504,3.9 -15.979,2.674 -22.496,-1.271c2.675,4.071 5.971,7.875 10.525,11.266c6.517,4.854 13.454,9.363 20.696,13.1l-0,19.154c-6.221,-2.808 -12.338,-5.991 -18.708,-8.362c-0.525,8.779 10.5,14.042 18.708,18.596l-0,7.225c-2.858,0.812 -6.083,1.041 -8.567,0.779c2.829,2.158 5.675,4.263 8.567,6.317l-0,13.987c-2.708,-1.296 -5.342,-2.725 -7.871,-4.254c1.083,5.313 3.788,10.638 7.871,14.292l-0,13.525c-5.217,-1.029 -10.142,-3.021 -14.329,-6.746c-0.35,3.658 1.233,8.346 3.908,11.212c1.992,2.134 7.117,3.234 10.421,4.825l-0,7.35c-1.679,1.23 -3.538,1.638 -5.521,1.296c1.704,1.479 3.55,2.85 5.521,4.125l-0,44.925c-8.1,-4.733 -14.767,-12.008 -21.45,-19.671c-2.654,12.325 32.412,32.513 11.358,36.35c-16.987,3.096 -31.871,-32.233 -37.646,-43.229c0.017,6.434 -3.933,22.933 -11.637,24.638c-0.754,0.166 -1.438,0.025 -2.058,-0.363l-0,64.225l-18.421,0l-0,-86.891c-4.884,7.858 -11.621,14.924 -16.654,19.295c-12.063,10.484 -49.917,23.442 -60.875,5.7c9.237,-3.479 17.562,-2.945 26.262,-8.779c7.45,-5 13.304,-9.866 15.454,-17.133c-3.608,0.791 -7.329,1.337 -10.954,1.708c-7.296,6.638 -14.871,12.671 -25.729,14.004c-8.817,1.084 -18.05,0.442 -26.517,-2.25c-4.787,-1.516 -20.804,-6.312 -22.258,-12.362c-0.217,-0.892 -0.221,-1.642 -0.05,-2.284c-7.425,-5.275 -13.746,-14.012 -16.388,-20.437c-1.441,14.808 18.305,34.558 -5.254,41.854c-0.029,-10.721 -1.2,-22.916 -5.05,-32.917c0.471,4.909 -1.058,9.738 -4.512,12.967l-0,87.525l-14.275,0l-0,-102.358c-10.254,10.512 -16.1,24.942 -33.075,29.783c-0.846,0.238 -1.742,0.438 -2.654,0.617c-4.246,9.033 -13.567,16.591 -22.867,18.987c-8.375,2.155 -21.888,2.167 -30.238,0.121c-7.425,-1.821 -12.762,-7.521 -19.57,-10.358c-1.75,12.267 13.22,13.071 21.362,15.016c0.967,8.826 -9.283,9.775 -15.729,7.934c-10.525,-3 -14.146,-11.946 -20.508,-18.463l-0,58.721l-8.85,0l-0,-49.525c-2.142,-2 -3.088,-4.996 -2.796,-8.037c-2.388,6.196 -3.117,13.758 -3.134,20.408c-14.604,-4.521 -2.362,-16.771 -3.258,-25.95c-2.9,7.054 -12.942,18.604 -21.296,14.771c3.159,-4.059 6.984,-7.417 6.363,-13.142c-5.371,11.025 -21.429,13.429 -32.013,13.321c-5.746,-0.054 -14.358,-0.508 -21.104,-2.983c-2.754,4.033 -10.779,6.029 -14.617,7.712c2.517,-0.062 5.088,-0.083 7.584,0.042c0.6,3.491 -2.842,5.204 -5.5,6.691c5.066,-1.487 5,2.238 2.116,5.171c-4.012,4.08 -13.012,4.584 -18.27,4.638c-6.871,0.071 -17.296,-1.492 -20.784,-8.65c-0.404,3.717 2.079,5.9 4.129,8.533c-5.425,2.488 -11.945,-5.012 -13.825,-9.592c-0.583,5.963 7.367,13.913 -2.116,16.85c-0.013,-4.316 -0.484,-9.229 -2.034,-13.25c0.188,1.971 -0.425,3.917 -1.816,5.221l-0,27.771l-5.746,0l-0,-33.746c-4.129,4.234 -6.483,10.042 -13.317,11.988c-4.183,1.196 -10.837,0.579 -10.208,-5.15c5.283,-1.263 15.004,-1.788 13.871,-9.75c-4.421,1.842 -7.888,5.546 -12.709,6.725c-5.425,1.325 -14.191,1.316 -19.633,-0.079c-7.587,-1.954 -15.217,-9.196 -16.267,-16.992c2.625,-0.063 3.855,2.529 5.917,4.067Z" style="fill:#283618;fill-rule:nonzero;"/></g></svg>